<svg width="965" height="170" viewBox="0 0 965 170" fill="none" xmlns="http://www.w3.org/2000/svg">
<path d="M426.044 51.8127C419.93 51.8127 414.88 49.781 410.894 45.7178C406.908 41.6545 404.916 36.6432 404.916 30.6837C404.916 24.6856 406.908 19.6742 410.894 15.6497C414.88 11.5864 419.93 9.5548 426.044 9.5548C429.721 9.5548 433.107 10.4255 436.203 12.1669C439.337 13.8696 441.775 16.1915 443.516 19.1325L436.609 23.1377C435.603 21.3189 434.171 19.9064 432.313 18.9003C430.456 17.8554 428.366 17.333 426.044 17.333C422.097 17.333 418.905 18.5714 416.467 21.048C414.068 23.5247 412.868 26.7366 412.868 30.6837C412.868 34.5922 414.068 37.7847 416.467 40.2614C418.905 42.738 422.097 43.9764 426.044 43.9764C428.366 43.9764 430.456 43.4733 432.313 42.4672C434.21 41.4223 435.641 40.0099 436.609 38.2298L443.516 42.235C441.775 45.176 439.356 47.5172 436.261 49.2586C433.165 50.9613 429.759 51.8127 426.044 51.8127ZM482.81 45.7178C478.708 49.781 473.716 51.8127 467.834 51.8127C461.952 51.8127 456.96 49.781 452.858 45.7178C448.795 41.6158 446.763 36.6045 446.763 30.6837C446.763 24.763 448.795 19.771 452.858 15.7077C456.96 11.6058 461.952 9.5548 467.834 9.5548C473.716 9.5548 478.708 11.6058 482.81 15.7077C486.912 19.771 488.963 24.763 488.963 30.6837C488.963 36.6045 486.912 41.6158 482.81 45.7178ZM458.489 40.2614C461.004 42.738 464.119 43.9764 467.834 43.9764C471.549 43.9764 474.664 42.738 477.18 40.2614C479.695 37.7461 480.953 34.5535 480.953 30.6837C480.953 26.814 479.695 23.6214 477.18 21.1061C474.664 18.5907 471.549 17.333 467.834 17.333C464.119 17.333 461.004 18.5907 458.489 21.1061C455.973 23.6214 454.716 26.814 454.716 30.6837C454.716 34.5535 455.973 37.7461 458.489 40.2614ZM534.936 10.3675V51H526.983V24.6469L515.548 43.512H514.619L503.184 24.7049V51H495.174V10.3675H503.416L515.084 29.5808L526.693 10.3675H534.936ZM558.237 10.3675C562.146 10.3675 565.435 11.6832 568.105 14.3146C570.775 16.9461 572.11 20.1773 572.11 24.0084C572.11 27.8394 570.775 31.0707 568.105 33.7021C565.435 36.3336 562.146 37.6493 558.237 37.6493H551.097V51H543.087V10.3675H558.237ZM558.237 30.1613C559.94 30.1613 561.352 29.5808 562.475 28.4199C563.597 27.2203 564.158 25.7498 564.158 24.0084C564.158 22.2283 563.597 20.7578 562.475 19.5968C561.352 18.4359 559.94 17.8554 558.237 17.8554H551.097V30.1613H558.237ZM593.056 51.8127C588.528 51.8127 584.813 50.5356 581.911 47.9816C579.009 45.4275 577.558 42.0028 577.558 37.7074V10.3675H585.51V37.0688C585.51 39.1972 586.11 40.8806 587.309 42.1189C588.548 43.3572 590.463 43.9764 593.056 43.9764C595.649 43.9764 597.545 43.3572 598.745 42.1189C599.983 40.8806 600.602 39.1972 600.602 37.0688V10.3675H608.612V37.7074C608.612 42.0028 607.161 45.4275 604.259 47.9816C601.357 50.5356 597.622 51.8127 593.056 51.8127ZM643.285 10.3675V18.0296H632.314V51H624.304V18.0296H613.391V10.3675H643.285ZM656.348 43.3379H673.471V51H648.337V10.3675H673.181V18.0296H656.348V26.6785H671.73V34.2246H656.348V43.3379ZM701.988 51L693.803 36.8947H687.709V51H679.698V10.3675H695.951C699.705 10.3675 702.897 11.6832 705.529 14.3146C708.16 16.9461 709.476 20.1193 709.476 23.8342C709.476 26.3496 708.76 28.6908 707.328 30.8579C705.896 32.9862 704 34.5922 701.64 35.6757L710.637 51H701.988ZM687.709 17.8554V29.8711H695.951C697.46 29.8711 698.757 29.2906 699.84 28.1297C700.924 26.9301 701.466 25.4982 701.466 23.8342C701.466 22.1702 700.924 20.7578 699.84 19.5968C698.757 18.4359 697.46 17.8554 695.951 17.8554H687.709ZM741.068 51L727.427 10.3675H736.134L746.06 41.5965L755.928 10.3675H764.693L750.994 51H741.068ZM769.189 10.3675H777.2V51H769.189V10.3675ZM798.551 51.8127C794.527 51.8127 791.141 50.9226 788.393 49.1425C785.646 47.3237 783.711 44.8664 782.589 41.7706L789.438 37.7654C791.025 41.906 794.14 43.9764 798.784 43.9764C801.028 43.9764 802.673 43.57 803.718 42.7574C804.762 41.9447 805.285 40.9193 805.285 39.6809C805.285 38.2491 804.646 37.1462 803.369 36.3723C802.092 35.5596 799.809 34.6889 796.52 33.7602C794.701 33.2184 793.153 32.6767 791.876 32.1349C790.638 31.5931 789.38 30.8772 788.103 29.9872C786.865 29.0584 785.917 27.8975 785.259 26.5044C784.601 25.1113 784.272 23.486 784.272 21.6285C784.272 17.9522 785.568 15.0305 788.161 12.8635C790.793 10.6577 793.946 9.5548 797.623 9.5548C800.912 9.5548 803.795 10.3675 806.272 11.9928C808.787 13.5794 810.741 15.8045 812.134 18.6681L805.401 22.5572C803.776 19.0744 801.183 17.333 797.623 17.333C795.959 17.333 794.643 17.72 793.676 18.494C792.747 19.2292 792.282 20.1967 792.282 21.3963C792.282 22.6733 792.805 23.7181 793.85 24.5308C794.933 25.3048 796.984 26.1561 800.003 27.0848C801.241 27.4718 802.17 27.7814 802.789 28.0136C803.447 28.2071 804.317 28.536 805.401 29.0004C806.523 29.4261 807.375 29.8324 807.955 30.2194C808.574 30.6063 809.271 31.1287 810.045 31.7866C810.819 32.4445 811.399 33.1217 811.786 33.8182C812.212 34.5148 812.56 35.3661 812.831 36.3723C813.14 37.3397 813.295 38.4039 813.295 39.5648C813.295 43.3185 811.922 46.2982 809.174 48.504C806.465 50.7098 802.924 51.8127 798.551 51.8127ZM818.817 10.3675H826.827V51H818.817V10.3675ZM869.119 45.7178C865.017 49.781 860.025 51.8127 854.143 51.8127C848.261 51.8127 843.269 49.781 839.167 45.7178C835.104 41.6158 833.072 36.6045 833.072 30.6837C833.072 24.763 835.104 19.771 839.167 15.7077C843.269 11.6058 848.261 9.5548 854.143 9.5548C860.025 9.5548 865.017 11.6058 869.119 15.7077C873.221 19.771 875.272 24.763 875.272 30.6837C875.272 36.6045 873.221 41.6158 869.119 45.7178ZM844.797 40.2614C847.313 42.738 850.428 43.9764 854.143 43.9764C857.858 43.9764 860.973 42.738 863.488 40.2614C866.004 37.7461 867.261 34.5535 867.261 30.6837C867.261 26.814 866.004 23.6214 863.488 21.1061C860.973 18.5907 857.858 17.333 854.143 17.333C850.428 17.333 847.313 18.5907 844.797 21.1061C842.282 23.6214 841.024 26.814 841.024 30.6837C841.024 34.5535 842.282 37.7461 844.797 40.2614ZM904.991 10.3675H913.001V51H906.907L889.493 26.1561V51H881.482V10.3675H887.577L904.991 35.1533V10.3675ZM416.815 109L403.174 68.3675H411.881L421.807 99.5965L431.675 68.3675H440.44L426.741 109H416.815ZM444.936 68.3675H452.947V109H444.936V68.3675ZM469.059 101.338H486.183V109H461.049V68.3675H485.893V76.0296H469.059V84.6785H484.441V92.2246H469.059V101.338ZM519.285 68.3675V76.0296H508.314V109H500.304V76.0296H489.391V68.3675H519.285ZM547.846 68.3675H555.857V109H549.762L532.348 84.1561V109H524.338V68.3675H530.432L547.846 93.1533V68.3675ZM590.096 109L587.658 101.686H571.463L569.025 109H560.376L574.597 68.3675H584.523L598.803 109H590.096ZM574.017 94.1981H585.162L579.589 77.5968L574.017 94.1981ZM643.09 68.3675V109H635.138V82.6469L623.703 101.512H622.774L611.339 82.7049V109H603.328V68.3675H611.571L623.238 87.5808L634.848 68.3675H643.09Z" fill="#EC1C2A"/>
<path d="M416.403 158L409.092 139.889H408.984C409.056 140.998 409.092 142.134 409.092 143.296V158H407.777V138.386H409.897L416.846 155.639H416.927L423.876 138.386H425.942V158H424.56V143.135C424.56 142.098 424.614 141.025 424.721 139.915H424.614L417.275 158H416.403ZM458.525 151.077H450.556L447.819 158H446.303L454.192 138.306H455.064L462.792 158H461.249L458.525 151.077ZM451.053 149.843H458.069L455.399 142.773C455.176 142.219 454.907 141.449 454.594 140.466C454.353 141.324 454.089 142.102 453.803 142.8L451.053 149.843ZM491.538 139.339C489.078 139.339 487.142 140.126 485.729 141.7C484.316 143.274 483.609 145.429 483.609 148.166C483.609 150.966 484.275 153.139 485.608 154.686C486.941 156.234 488.846 157.007 491.323 157.007C492.969 157.007 494.48 156.797 495.858 156.377V157.584C494.561 158.04 492.942 158.268 491.001 158.268C488.246 158.268 486.078 157.378 484.495 155.599C482.911 153.819 482.12 151.332 482.12 148.139C482.12 146.145 482.496 144.387 483.247 142.867C484.007 141.347 485.094 140.175 486.507 139.352C487.929 138.52 489.579 138.104 491.457 138.104C493.371 138.104 495.084 138.462 496.596 139.178L496.046 140.412C494.615 139.696 493.112 139.339 491.538 139.339ZM532.023 158H530.641V148.354H519.184V158H517.816V138.386H519.184V147.093H530.641V138.386H532.023V158ZM555.175 158V138.386H556.543V158H555.175ZM593.943 158H592.561L580.943 140.586H580.836C580.943 142.661 580.997 144.226 580.997 145.282V158H579.682V138.386H581.05L592.655 155.773H592.735C592.655 154.163 592.615 152.634 592.615 151.185V138.386H593.943V158ZM627.814 158H617.095V138.386H627.814V139.647H618.463V147.066H627.291V148.327H618.463V156.739H627.814V158ZM660.665 152.942C660.665 154.579 660.062 155.876 658.854 156.833C657.656 157.79 656.059 158.268 654.065 158.268C651.668 158.268 649.83 158.004 648.551 157.477V156.108C649.964 156.708 651.766 157.007 653.958 157.007C655.567 157.007 656.842 156.641 657.781 155.907C658.729 155.165 659.203 154.194 659.203 152.996C659.203 152.254 659.047 151.641 658.734 151.158C658.421 150.666 657.911 150.219 657.204 149.816C656.498 149.414 655.46 148.98 654.092 148.515C652.088 147.826 650.702 147.084 649.933 146.288C649.173 145.483 648.792 144.414 648.792 143.082C648.792 141.615 649.365 140.421 650.51 139.5C651.663 138.569 653.144 138.104 654.95 138.104C656.793 138.104 658.523 138.453 660.142 139.151L659.646 140.331C658.018 139.652 656.462 139.312 654.977 139.312C653.528 139.312 652.375 139.647 651.516 140.318C650.657 140.989 650.228 141.901 650.228 143.055C650.228 143.779 650.358 144.374 650.617 144.839C650.885 145.304 651.319 145.725 651.918 146.1C652.518 146.467 653.546 146.91 655.004 147.428C656.533 147.956 657.683 148.47 658.452 148.971C659.221 149.463 659.78 150.027 660.129 150.662C660.487 151.288 660.665 152.048 660.665 152.942ZM715.488 139.339C713.029 139.339 711.092 140.126 709.679 141.7C708.266 143.274 707.56 145.429 707.56 148.166C707.56 150.966 708.226 153.139 709.559 154.686C710.891 156.234 712.796 157.007 715.274 157.007C716.919 157.007 718.431 156.797 719.808 156.377V157.584C718.511 158.04 716.893 158.268 714.952 158.268C712.197 158.268 710.028 157.378 708.445 155.599C706.862 153.819 706.07 151.332 706.07 148.139C706.07 146.145 706.446 144.387 707.197 142.867C707.958 141.347 709.044 140.175 710.457 139.352C711.879 138.52 713.53 138.104 715.408 138.104C717.322 138.104 719.035 138.462 720.546 139.178L719.996 140.412C718.565 139.696 717.062 139.339 715.488 139.339ZM751.211 151.077H743.242L740.505 158H738.989L746.878 138.306H747.75L755.477 158H753.934L751.211 151.077ZM743.738 149.843H750.755L748.085 142.773C747.861 142.219 747.593 141.449 747.28 140.466C747.039 141.324 746.775 142.102 746.489 142.8L743.738 149.843ZM790.113 158H788.731L777.113 140.586H777.006C777.113 142.661 777.167 144.226 777.167 145.282V158H775.852V138.386H777.22L788.825 155.773H788.906C788.825 154.163 788.785 152.634 788.785 151.185V138.386H790.113V158ZM848.813 152.942C848.813 154.579 848.209 155.876 847.002 156.833C845.803 157.79 844.207 158.268 842.212 158.268C839.815 158.268 837.977 158.004 836.699 157.477V156.108C838.112 156.708 839.914 157.007 842.105 157.007C843.715 157.007 844.989 156.641 845.929 155.907C846.877 155.165 847.351 154.194 847.351 152.996C847.351 152.254 847.194 151.641 846.881 151.158C846.568 150.666 846.058 150.219 845.352 149.816C844.645 149.414 843.608 148.98 842.239 148.515C840.236 147.826 838.85 147.084 838.08 146.288C837.32 145.483 836.94 144.414 836.94 143.082C836.94 141.615 837.512 140.421 838.657 139.5C839.811 138.569 841.291 138.104 843.098 138.104C844.94 138.104 846.671 138.453 848.29 139.151L847.793 140.331C846.166 139.652 844.609 139.312 843.125 139.312C841.676 139.312 840.522 139.647 839.663 140.318C838.805 140.989 838.375 141.901 838.375 143.055C838.375 143.779 838.505 144.374 838.765 144.839C839.033 145.304 839.467 145.725 840.066 146.1C840.665 146.467 841.694 146.91 843.152 147.428C844.681 147.956 845.83 148.47 846.599 148.971C847.369 149.463 847.928 150.027 848.276 150.662C848.634 151.288 848.813 152.048 848.813 152.942ZM881.262 158H870.543V138.386H881.262V139.647H871.911V147.066H880.739V148.327H871.911V156.739H881.262V158ZM914.006 158H903.287V138.386H914.006V139.647H904.655V147.066H913.483V148.327H904.655V156.739H914.006V158Z" fill="black"/>
<path d="M81.6465 0L97.3706 41.6541H104.892C111.035 41.6541 116.535 45.462 118.697 51.2121L163.291 169.82H207.379L151.889 21.1035C147.154 8.41356 135.034 0 121.49 0H81.6465Z" fill="#EC1C2A"/>
<path fill-rule="evenodd" clip-rule="evenodd" d="M0 85.2022C0 38.1466 38.1461 0.000488281 85.2017 0.000488281H122.929V41.6546H85.2017C61.1511 41.6546 41.6541 61.1515 41.6541 85.2022C41.6541 109.253 61.151 128.75 85.2017 128.75H124.36L140.015 169.821H84.9101C37.8546 169.821 0 132.258 0 85.2022Z" fill="#EC1C2A"/>
<path fill-rule="evenodd" clip-rule="evenodd" d="M263.433 0C263.112 0.210699 262.793 0.424614 262.475 0.641753C262.208 0.823896 261.941 1.00852 261.676 1.19539C235.478 19.6485 227.082 54.0788 240.342 82.1583L207.383 169.82H163.295L218.785 21.1035C223.52 8.41356 235.64 0 249.184 0H263.433Z" fill="#EC1C2A"/>
<path d="M328.332 84.244C328.332 97.7713 317.366 108.737 303.839 108.737C290.312 108.737 279.346 97.7713 279.346 84.244C279.346 70.7167 290.312 59.7507 303.839 59.7507C317.366 59.7507 328.332 70.7167 328.332 84.244Z" fill="#EC1C2A"/>
<path d="M360.006 40.8842H324.852H306.024L305.925 40.9716C305.168 40.933 304.406 40.9134 303.639 40.9134C279.29 40.9134 259.551 60.6522 259.551 85.0013C259.551 87.2043 259.712 89.3696 260.024 91.486L255.286 84.6786C238.34 60.3347 244.222 26.7818 268.422 9.73603C268.643 9.58086 268.864 9.42759 269.086 9.27622C277.366 3.62517 286.677 0.621414 296.015 0.0869734L296.244 0.074357C298.2 -0.0290807 300.156 -0.0243457 302.104 0.0869734H375.28L360.006 40.8842Z" fill="#EC1C2A"/>
<path d="M297.134 128.613H281.361H246.207L230.933 169.41H304.109C306.056 169.521 308.013 169.526 309.968 169.423L310.197 169.41C319.535 168.876 328.846 165.872 337.127 160.221C337.348 160.069 337.569 159.916 337.79 159.761C361.99 142.715 367.872 109.162 350.926 84.8184L347.421 79.7827C347.623 81.4942 347.727 83.2356 347.727 85.0013C347.727 109.35 327.988 129.089 303.639 129.089C301.429 129.089 299.257 128.927 297.134 128.613Z" fill="#EC1C2A"/>
</svg>
