<svg width="123" height="92" viewBox="0 0 123 92" fill="none" xmlns="http://www.w3.org/2000/svg">
<path d="M123 80.7172H0V80.7665H123V80.7172Z" fill="#EBEBEB"/>
<path d="M105.706 82.4183H81.6963V82.4676H105.706V82.4183Z" fill="#EBEBEB"/>
<path d="M82.5829 83.8236H71.0947V83.8729H82.5829V83.8236Z" fill="#EBEBEB"/>
<path d="M110.675 84.6865H105.952V84.7358H110.675V84.6865Z" fill="#EBEBEB"/>
<path d="M53.8741 83.8729H31.1191V83.9222H53.8741V83.8729Z" fill="#EBEBEB"/>
<path d="M28.9296 83.8729H24.0342V83.9222H28.9296V83.8729Z" fill="#EBEBEB"/>
<path d="M22.3122 82.8127H14.2188V82.862H22.3122V82.8127Z" fill="#EBEBEB"/>
<path d="M58.3023 69.7215H10.7997C10.0371 69.7215 9.39746 69.0805 9.39746 68.3162V1.40531C9.39746 0.641034 10.0371 3.05176e-05 10.7997 3.05176e-05H58.3023C59.0649 3.05176e-05 59.7045 0.641034 59.7045 1.40531V68.3162C59.7045 69.1052 59.0895 69.7215 58.3023 69.7215ZM10.7997 0.0493385C10.0617 0.0493385 9.44666 0.641034 9.44666 1.40531V68.3162C9.44666 69.0559 10.0371 69.6722 10.7997 69.6722H58.3023C59.0403 69.6722 59.6553 69.0805 59.6553 68.3162V1.40531C59.6553 0.665688 59.0649 0.0493385 58.3023 0.0493385H10.7997Z" fill="#EBEBEB"/>
<path d="M111.511 69.7215H64.0086C63.246 69.7215 62.6064 69.0805 62.6064 68.3162V1.40531C62.6064 0.641034 63.246 3.05176e-05 64.0086 3.05176e-05H111.511C112.274 3.05176e-05 112.913 0.641034 112.913 1.40531V68.3162C112.913 69.1052 112.298 69.7215 111.511 69.7215ZM64.0086 0.0493385C63.2706 0.0493385 62.6556 0.641034 62.6556 1.40531V68.3162C62.6556 69.0559 63.246 69.6722 64.0086 69.6722H111.511C112.249 69.6722 112.864 69.0805 112.864 68.3162V1.40531C112.864 0.665688 112.274 0.0493385 111.511 0.0493385H64.0086Z" fill="#EBEBEB"/>
<path d="M96.2104 78.449H21.8938L17.4658 27.9576H91.7824L96.2104 78.449Z" fill="#F0F0F0"/>
<path d="M20.5901 80.0761L21.8939 78.449L17.4659 27.9576L16.1621 29.5848L20.5901 80.0761Z" fill="#E0E0E0"/>
<path d="M22.8778 76.5506L18.7942 30.0039C18.745 29.5108 19.1386 29.0917 19.6306 29.0917H89.962C90.4048 29.0917 90.7492 29.4122 90.7984 29.856L94.882 76.3781C94.9312 76.8711 94.5376 77.2903 94.0456 77.2903H23.7142C23.296 77.3149 22.927 76.9698 22.8778 76.5506Z" fill="#FAFAFA"/>
<path d="M32.3484 78.449H21.1554L20.3682 80.7171H31.5612L32.3484 78.449Z" fill="#E0E0E0"/>
<path d="M32.3487 78.449H105.952L105.165 80.7171H31.5615L32.3487 78.449Z" fill="#F5F5F5"/>
<path d="M62.6564 78.449H76.7768L76.6046 79.9529H62.5088L62.6564 78.449Z" fill="#E0E0E0"/>
<path d="M84.034 24.6293H101.869C103.345 34.4416 96.5062 42.5035 86.74 42.5035C83.6158 42.5035 80.4178 41.6899 77.4658 40.112L84.034 24.6293Z" fill="#E0E0E0"/>
<path d="M84.0342 24.6293L93.4314 10.9464C95.67 12.6228 97.5888 14.7184 99.0648 17.0852C100.516 19.452 101.476 22.016 101.869 24.6293H84.0342Z" fill="#EBEBEB"/>
<path d="M84.0339 24.6293L81.3525 6.75519C83.4435 6.75519 85.5591 7.125 87.6009 7.83996C89.6673 8.55493 91.6353 9.61505 93.4311 10.9464L84.0339 24.6293Z" fill="#E6E6E6"/>
<path d="M84.0335 24.6293L77.4407 40.112C71.4629 36.9317 67.1579 31.0147 66.1985 24.6293C64.7225 14.817 71.5613 6.75519 81.3275 6.75519L84.0335 24.6293Z" fill="#F0F0F0"/>
<path d="M62.041 56.5069H77.8588C78.0556 57.8876 78.1048 59.2682 77.9326 60.5995C77.785 61.9308 77.4406 63.2128 76.924 64.4209L62.041 56.5069Z" fill="#EBEBEB"/>
<path d="M62.041 56.5069L62.4346 40.901C66.1984 41.542 69.79 43.465 72.619 46.3248C75.448 49.1847 77.293 52.7842 77.8588 56.5069H62.041Z" fill="#E0E0E0"/>
<path d="M62.0414 56.5069L47.9948 61.9308C47.1092 60.205 46.4942 58.356 46.2236 56.5069C44.9198 47.8041 50.9714 40.6544 59.6552 40.6544C60.5654 40.6544 61.5002 40.7284 62.435 40.901L62.0414 56.5069Z" fill="#F0F0F0"/>
<path d="M62.0407 56.5069L76.9237 64.4209C74.8327 69.327 70.0603 72.3348 64.4269 72.3348C57.7849 72.3348 51.2167 68.1436 47.9941 61.9062L62.0407 56.5069Z" fill="white"/>
<path d="M61.5002 91.8608C87.8438 91.8608 109.2 90.6135 109.2 89.0749C109.2 87.5363 87.8438 86.289 61.5002 86.289C35.1565 86.289 13.8008 87.5363 13.8008 89.0749C13.8008 90.6135 35.1565 91.8608 61.5002 91.8608Z" fill="#F5F5F5"/>
<path d="M59.1879 45.4619H37.0233C35.6211 45.4619 34.3665 44.3032 34.2681 42.8979L33.1611 29.2396C33.0381 27.8343 34.0959 26.6756 35.4981 26.6756H57.6627C59.0649 26.6756 60.3195 27.8343 60.4179 29.2396L61.5249 42.8979C61.6479 44.3278 60.5901 45.4619 59.1879 45.4619Z" fill="white"/>
<path d="M59.1878 45.5852H37.0232C35.5472 45.5852 34.268 44.4018 34.145 42.9226L33.038 29.2643C32.9888 28.5493 33.2102 27.8837 33.6776 27.3659C34.145 26.8482 34.7846 26.577 35.498 26.577H57.6626C59.1386 26.577 60.4178 27.7604 60.5408 29.2396L61.6478 42.8979C61.697 43.6129 61.4756 44.2786 61.0082 44.7963C60.5408 45.2894 59.9012 45.5852 59.1878 45.5852ZM35.498 26.7989C34.8584 26.7989 34.268 27.0454 33.8252 27.5138C33.407 27.9823 33.1856 28.5986 33.2348 29.2396L34.3418 42.8979C34.4402 44.2539 35.6456 45.3633 36.9986 45.3633H59.1632C59.8028 45.3633 60.3932 45.1168 60.836 44.6484C61.2542 44.1799 61.4756 43.5636 61.4264 42.9226L60.3194 29.2643C60.221 27.9083 59.0156 26.7989 57.6626 26.7989H35.498Z" fill="#005DE8"/>
<path d="M53.1611 41.4926C52.3001 42.4295 51.1685 43.1198 49.9139 43.4649L49.5449 42.4048C52.2755 41.6652 54.1205 39.1012 53.8745 36.0687C53.7269 34.269 52.8659 32.6172 51.5867 31.4338L52.3001 30.6695C55.4981 33.6527 55.8917 38.5095 53.1611 41.4926Z" fill="#E0E0E0"/>
<path d="M52.3002 30.6695L51.5868 31.4338C50.3076 30.2504 48.6102 29.5108 46.8144 29.5108C45.0186 29.5108 43.4442 30.2504 42.3618 31.4338L41.5254 30.6695C42.8292 29.2396 44.7234 28.426 46.7406 28.426C48.7332 28.4507 50.7504 29.2396 52.3002 30.6695Z" fill="#263238"/>
<path d="M49.9144 43.4649C47.356 44.1799 44.4778 43.4156 42.3868 41.4926C39.1888 38.5341 38.7952 33.6527 41.5012 30.6942L42.3376 31.4585C41.2552 32.6418 40.6648 34.269 40.8124 36.0934C41.1076 39.7175 44.281 42.6514 47.8726 42.6514C48.463 42.6514 49.0288 42.5774 49.5454 42.4295L49.9144 43.4649Z" fill="#005DE8"/>
<path d="M29.0036 4.61031H27.2324V4.83219H29.0036V4.61031Z" fill="#005DE8"/>
<path d="M25.4856 4.61031H21.4512V4.83219H25.4856V4.61031Z" fill="#005DE8"/>
<path d="M44.3049 24.2349H22.1649C20.7627 24.2349 19.5081 23.0761 19.4097 21.6709L18.3027 8.01255C18.1797 6.60727 19.2375 5.44853 20.6397 5.44853H42.8043C44.2065 5.44853 45.4611 6.60727 45.5595 8.01255L46.6665 21.6709C46.7895 23.1008 45.7317 24.2349 44.3049 24.2349Z" fill="white"/>
<path d="M44.3048 24.3582H22.1648C20.6888 24.3582 19.4096 23.1748 19.2866 21.6955L18.1796 8.03721C18.1304 7.32225 18.3518 6.65659 18.8192 6.13886C19.2866 5.62112 19.9262 5.34993 20.6396 5.34993H42.8042C44.2802 5.34993 45.5594 6.53332 45.6824 8.01256L46.7894 21.6709C46.8386 22.3858 46.6172 23.0515 46.1498 23.5692C45.6824 24.0623 45.0182 24.3582 44.3048 24.3582ZM20.6396 5.57182C20 5.57182 19.4096 5.81836 18.9668 6.28678C18.5486 6.75521 18.3272 7.37156 18.3764 8.01256L19.4834 21.6709C19.5818 23.0268 20.7872 24.1363 22.1402 24.1363H44.3048C44.9444 24.1363 45.5348 23.8897 45.9776 23.4213C46.3958 22.9529 46.6172 22.3365 46.568 21.6955L45.461 8.03721C45.3626 6.68124 44.1572 5.57182 42.8042 5.57182H20.6396Z" fill="#005DE8"/>
<path d="M20.2947 9.39318H32.0289L31.9305 8.20979H20.1963L20.2947 9.39318Z" fill="#E0E0E0"/>
<path d="M43.7633 9.39318H32.0291L31.9307 8.20979H43.6649L43.7633 9.39318Z" fill="#005DE8"/>
<path d="M20.5408 12.401H23.8864L23.788 11.2422H20.4424L20.5408 12.401Z" fill="#E0E0E0"/>
<path d="M44.0093 12.401H23.8865L23.7881 11.2422H43.9109L44.0093 12.401Z" fill="#005DE8"/>
<path d="M20.7869 15.4334H31.2419L31.1435 14.2747H20.6885L20.7869 15.4334Z" fill="#E0E0E0"/>
<path d="M44.2554 15.4334H31.242L31.1436 14.2747H44.157L44.2554 15.4334Z" fill="#005DE8"/>
<path d="M21.033 18.4658H38.868L38.7696 17.3071H20.9346L21.033 18.4658Z" fill="#E0E0E0"/>
<path d="M44.5013 18.4658H38.8679L38.7695 17.3071H44.4029L44.5013 18.4658Z" fill="#005DE8"/>
<path d="M21.2791 21.4983H29.5201L29.4217 20.3149H21.1807L21.2791 21.4983Z" fill="#E0E0E0"/>
<path d="M44.7477 21.4983H29.5203L29.4219 20.3149H44.6493L44.7477 21.4983Z" fill="#005DE8"/>
<path d="M74.6117 24.2349H52.4471C51.0449 24.2349 49.7903 23.0761 49.6919 21.6709L48.5849 8.01255C48.4619 6.60727 49.5197 5.44853 50.9219 5.44853H73.0865C74.4887 5.44853 75.7433 6.60727 75.8417 8.01255L76.9487 21.6709C77.0717 23.1008 76.0139 24.2349 74.6117 24.2349Z" fill="white"/>
<path d="M74.6116 24.3582H52.447C50.971 24.3582 49.6918 23.1748 49.5688 21.6955L48.4618 8.03721C48.4126 7.32225 48.634 6.65659 49.1014 6.13886C49.5688 5.62112 50.2084 5.34993 50.9218 5.34993H73.0864C74.5624 5.34993 75.8416 6.53332 75.9646 8.01256L77.0716 21.6709C77.1208 22.3858 76.8994 23.0515 76.432 23.5692C75.9646 24.0623 75.325 24.3582 74.6116 24.3582ZM50.9218 5.57182C50.2822 5.57182 49.6918 5.81836 49.249 6.28678C48.8308 6.75521 48.6094 7.37156 48.6586 8.01256L49.7656 21.6709C49.864 23.0268 51.0694 24.1363 52.4224 24.1363H74.587C75.2266 24.1363 75.817 23.8897 76.2598 23.4213C76.678 22.9529 76.8994 22.3365 76.8502 21.6955L75.7432 8.03721C75.6448 6.68124 74.4394 5.57182 73.0864 5.57182H50.9218Z" fill="#005DE8"/>
<path d="M63.4924 21.4983H63.0988L62.041 8.20979H62.41L63.4924 21.4983Z" fill="#E0E0E0"/>
<path d="M64.0823 15.9758H61.6223L61.2041 10.7985H63.6641L64.0823 15.9758Z" fill="#005DE8"/>
<path d="M58.6469 21.4983H58.2533L57.1709 8.20979H57.5645L58.6469 21.4983Z" fill="#E0E0E0"/>
<path d="M59.335 17.1345H56.8504L56.4814 12.5735H58.966L59.335 17.1345Z" fill="#005DE8"/>
<path d="M53.7756 21.4983H53.4066L52.3242 8.20979H52.7178L53.7756 21.4983Z" fill="#E0E0E0"/>
<path d="M54.1691 13.3871H51.7091L51.4385 10.2807H53.9231L54.1691 13.3871Z" fill="#263238"/>
<path d="M68.3637 21.4983H67.9701L66.8877 8.20979H67.2813L68.3637 21.4983Z" fill="#E0E0E0"/>
<path d="M69.175 18.9096H66.715L66.0508 10.7985H68.5354L69.175 18.9096Z" fill="#263238"/>
<path d="M73.2094 21.4983H72.8158L71.7334 8.20979H72.127L73.2094 21.4983Z" fill="#E0E0E0"/>
<path d="M74.1194 19.8958H71.6594L71.1182 13.3871H73.6028L74.1194 19.8958Z" fill="#005DE8"/>
<path d="M50.8979 66.5164H28.7333C27.3311 66.5164 26.0765 65.3577 25.9781 63.9524L24.8711 50.2941C24.7481 48.8888 25.8059 47.7301 27.2081 47.7301H49.3727C50.7749 47.7301 52.0295 48.8888 52.1279 50.2941L53.2349 63.9524C53.3579 65.3577 52.3001 66.5164 50.8979 66.5164Z" fill="white"/>
<path d="M50.8977 66.6398H28.7331C27.2571 66.6398 25.9779 65.4564 25.8549 63.9771L24.7479 50.3188C24.6987 49.6038 24.9201 48.9382 25.3875 48.4204C25.8549 47.9027 26.4945 47.6315 27.2079 47.6315H49.3725C50.8485 47.6315 52.1277 48.8149 52.2507 50.2941L53.3577 63.9525C53.4069 64.6674 53.1855 65.3331 52.7181 65.8508C52.2507 66.3439 51.6111 66.6398 50.8977 66.6398ZM27.2079 47.8534C26.5683 47.8534 25.9779 48.0999 25.5351 48.5684C25.1169 49.0368 24.8955 49.6531 24.9447 50.2941L26.0517 63.9525C26.1501 65.3084 27.3555 66.4179 28.7085 66.4179H50.8731C51.5127 66.4179 52.1031 66.1713 52.5459 65.7029C52.9641 65.2345 53.1855 64.6181 53.1363 63.9771L52.0293 50.3188C51.9309 48.9628 50.7255 47.8534 49.3725 47.8534H27.2079Z" fill="#005DE8"/>
<path d="M30.2097 56.8028L34.9821 62.3253L40.4679 53.869L43.8381 58.2327L44.6745 56.9754L50.2095 63.6073H28.9551L30.2097 56.8028Z" fill="#005DE8"/>
<path d="M46.1505 57.1479L43.9365 61.9062L36.8517 50.6393L33.5307 57.7889L32.4483 56.1125L28.9551 63.6073H50.2095L46.1505 57.1479Z" fill="#E0E0E0"/>
<path d="M91.7336 25.6649C92.324 26.7743 92.8406 27.8837 93.308 29.0178C93.7754 30.1765 94.2182 31.3353 94.538 32.568C94.6364 32.8638 94.7102 33.1843 94.7594 33.5048C94.784 33.6034 94.8578 33.9486 94.8578 34.1705C94.8578 34.417 94.8578 34.6389 94.8086 34.8361C94.6856 35.6497 94.3904 36.2907 94.0706 36.8824C93.431 38.0658 92.6684 39.0273 91.7828 39.9395C91.5122 40.2107 91.0694 40.2107 90.7988 39.9642C90.5774 39.7423 90.5282 39.4218 90.6758 39.1506L90.7004 39.1259C91.217 38.1151 91.7582 37.0303 92.1026 35.9949C92.2748 35.4771 92.3978 34.9594 92.3978 34.5896C92.3978 34.491 92.3978 34.417 92.3732 34.3677C92.3732 34.3431 92.3732 34.3184 92.3486 34.2938L92.2994 34.1458C92.2256 33.8746 92.1272 33.6034 92.0288 33.3569C91.6598 32.2968 91.1924 31.212 90.725 30.1519C90.2576 29.0918 89.741 28.007 89.2244 26.9715V26.9469C88.88 26.2566 89.1752 25.4183 89.864 25.0732C90.5528 24.728 91.3646 24.9992 91.7336 25.6649Z" fill="#005DE8"/>
<path d="M90.9708 39.0273L89.79 39.3972L91.1676 41.0243C91.1676 41.0243 91.7088 40.5559 91.881 39.8656C91.9548 39.6437 91.8564 39.3972 91.6596 39.2492L91.4628 39.1013C91.3152 39.0027 91.143 38.9534 90.9708 39.0273Z" fill="#7F3E3B"/>
<path d="M88.166 40.3833L89.642 41.5667L91.1672 40.9996L89.7896 39.3971L88.166 40.3833Z" fill="#7F3E3B"/>
<path d="M83.1231 17.4304C83.0985 17.5783 83.0001 17.677 82.9017 17.6523C82.8033 17.6277 82.7541 17.5044 82.7787 17.3565C82.8033 17.2085 82.9017 17.1099 83.0001 17.1346C83.0985 17.1346 83.1477 17.2825 83.1231 17.4304Z" fill="#263238"/>
<path d="M83.0004 17.677C83.0004 17.677 82.5084 18.4412 82.041 18.7864C82.2378 19.0822 82.7052 19.0576 82.7052 19.0576L83.0004 17.677Z" fill="#630F0F"/>
<path d="M83.8124 16.7155C83.837 16.7155 83.8616 16.7155 83.8616 16.6908C83.8862 16.6661 83.9108 16.5922 83.8616 16.5675C83.5418 16.2224 83.1482 16.2717 83.1236 16.2717C83.0744 16.2717 83.0498 16.321 83.0498 16.3703C83.0498 16.4196 83.099 16.4443 83.1482 16.4443C83.1728 16.4443 83.468 16.3949 83.7386 16.6908C83.7632 16.7155 83.7878 16.7155 83.8124 16.7155Z" fill="#263238"/>
<path d="M87.158 20.0684C86.8874 21.4244 86.7398 23.2981 87.6746 24.1856C87.6746 24.1856 87.3056 25.5663 84.7964 25.5663C82.0412 25.5663 83.468 24.3582 83.468 24.3582C84.5996 24.0131 84.5996 22.7064 84.329 21.6463L87.158 20.0684Z" fill="#7F3E3B"/>
<path d="M83 24.161C83 24.161 83.3936 23.1995 83.8118 23.0515C84.23 22.879 86.8376 22.4598 87.428 22.8297C88.0184 23.1995 88.4366 24.4322 88.4366 24.4322L83 24.161Z" fill="#005DE8"/>
<path d="M85.7552 87.2752C85.5092 87.2752 85.2878 87.2505 85.214 87.1272C85.1894 87.0779 85.1648 87.0286 85.214 86.93C85.2386 86.8807 85.2878 86.8561 85.3616 86.8314C85.6568 86.7574 86.321 87.1272 86.3456 87.1272C86.3702 87.1272 86.3702 87.1519 86.3702 87.1766C86.3702 87.2012 86.3456 87.2012 86.3456 87.2012C86.198 87.2505 85.9766 87.2752 85.7552 87.2752ZM85.46 86.93C85.4354 86.93 85.4108 86.93 85.3862 86.93C85.337 86.93 85.3124 86.9547 85.3124 86.9793C85.2878 87.0286 85.2878 87.0533 85.3124 87.0779C85.3862 87.2012 85.8536 87.2012 86.198 87.1519C86.0012 87.0779 85.6814 86.93 85.46 86.93Z" fill="#005DE8"/>
<path d="M86.2967 87.2259C86.0507 87.1273 85.6079 86.7328 85.6571 86.5109C85.6571 86.4616 85.7063 86.4123 85.8293 86.3876C85.9277 86.3876 86.0015 86.4123 86.0753 86.4616C86.3213 86.6588 86.3705 87.1519 86.3705 87.1766C86.3705 87.2012 86.3705 87.2012 86.3459 87.2259C86.3213 87.2259 86.3213 87.2259 86.2967 87.2259ZM85.8539 86.4862H85.8293C85.7555 86.4862 85.7555 86.5356 85.7555 86.5356C85.7309 86.6588 86.0261 86.9793 86.2721 87.1026C86.2475 86.9547 86.1737 86.6588 86.0261 86.5356C85.9769 86.5109 85.9031 86.4862 85.8539 86.4862Z" fill="#005DE8"/>
<path d="M88.3387 87.1766H86.4937L86.2969 82.9114H88.1419L88.3387 87.1766Z" fill="#7F3E3B"/>
<path d="M86.4938 86.9793H88.511C88.5848 86.9793 88.6586 87.0286 88.6586 87.1026L89.0276 88.7544C89.0768 88.927 88.9292 89.0749 88.757 89.0749C88.0436 89.0502 86.9858 89.0256 86.0756 89.0256C85.0178 89.0256 84.8702 89.0749 83.6402 89.0749C82.8776 89.0749 82.6808 88.3106 83.0006 88.2367C84.452 87.9162 84.821 87.8915 86.0756 87.1272C86.1986 87.0286 86.3462 86.9793 86.4938 86.9793Z" fill="#263238"/>
<path d="M90.9712 24.2103C92.6932 24.6047 93.8248 29.2643 93.8248 29.2643L90.9466 31.4339C90.9466 31.4339 89.3722 30.4477 88.8064 28.2535C88.216 25.936 89.2 23.7911 90.9712 24.2103Z" fill="#263238"/>
<path opacity="0.2" d="M89.495 27.4399C90.4298 28.3768 91.0448 29.8314 91.1186 31.3106L90.971 31.4339C90.971 31.4339 89.3966 30.4477 88.8308 28.2535C88.8062 28.1056 88.757 27.9823 88.7324 27.8344L89.495 27.4399Z" fill="black"/>
<path d="M97.1678 31.1592L83.1875 36.7585L87.3412 47.1751L101.322 41.5759L97.1678 31.1592Z" fill="#005DE8"/>
<path opacity="0.5" d="M96.9719 31.2199L83.1973 36.7368L87.351 47.1534L101.126 41.6365L96.9719 31.2199Z" fill="white"/>
<g opacity="0.5">
<path opacity="0.5" d="M85.7191 36.8052L84.417 37.3267L84.7822 38.2424L86.0842 37.7209L85.7191 36.8052Z" fill="#005DE8"/>
<path opacity="0.5" d="M87.8607 35.9471L86.5586 36.4686L86.9238 37.3844L88.2258 36.8629L87.8607 35.9471Z" fill="#005DE8"/>
<path opacity="0.5" d="M90.0238 35.08L88.7217 35.6015L89.0868 36.5172L90.3889 35.9957L90.0238 35.08Z" fill="#005DE8"/>
<path opacity="0.5" d="M92.1654 34.222L90.8633 34.7435L91.2284 35.6592L92.5305 35.1377L92.1654 34.222Z" fill="#005DE8"/>
<path opacity="0.5" d="M94.3284 33.3548L93.0264 33.8763L93.3915 34.7921L94.6936 34.2706L94.3284 33.3548Z" fill="#005DE8"/>
<path opacity="0.5" d="M96.4925 32.4893L95.1904 33.0108L95.5556 33.9265L96.8577 33.4051L96.4925 32.4893Z" fill="#005DE8"/>
<path opacity="0.5" d="M86.3333 38.3313L85.0312 38.8528L85.3964 39.7686L86.6985 39.2471L86.3333 38.3313Z" fill="#005DE8"/>
<path opacity="0.5" d="M88.474 37.4739L87.1719 37.9954L87.537 38.9112L88.8391 38.3897L88.474 37.4739Z" fill="#005DE8"/>
<path opacity="0.5" d="M90.638 36.6067L89.3359 37.1282L89.7011 38.044L91.0032 37.5225L90.638 36.6067Z" fill="#005DE8"/>
<path opacity="0.5" d="M92.7786 35.7488L91.4766 36.2702L91.8417 37.186L93.1438 36.6645L92.7786 35.7488Z" fill="#005DE8"/>
<path opacity="0.5" d="M94.9427 34.8816L93.6406 35.4031L94.0058 36.3188L95.3079 35.7973L94.9427 34.8816Z" fill="#005DE8"/>
<path opacity="0.5" d="M97.0843 34.0236L95.7822 34.5451L96.1474 35.4608L97.4495 34.9393L97.0843 34.0236Z" fill="#005DE8"/>
<path opacity="0.5" d="M86.9251 39.8678L85.623 40.3893L85.9882 41.3051L87.2903 40.7836L86.9251 39.8678Z" fill="#005DE8"/>
<path opacity="0.5" d="M89.0882 39L87.7861 39.5215L88.1513 40.4373L89.4534 39.9158L89.0882 39Z" fill="#005DE8"/>
<path opacity="0.5" d="M91.2523 38.1335L89.9502 38.655L90.3154 39.5707L91.6174 39.0492L91.2523 38.1335Z" fill="#005DE8"/>
<path opacity="0.5" d="M93.3929 37.2755L92.0908 37.797L92.456 38.7127L93.7581 38.1912L93.3929 37.2755Z" fill="#005DE8"/>
<path opacity="0.5" d="M95.557 36.41L94.2549 36.9315L94.62 37.8473L95.9221 37.3258L95.557 36.41Z" fill="#005DE8"/>
<path opacity="0.5" d="M97.6986 35.5521L96.3965 36.0735L96.7616 36.9893L98.0637 36.4678L97.6986 35.5521Z" fill="#005DE8"/>
<path opacity="0.5" d="M87.5384 41.3946L86.2363 41.9161L86.6015 42.8319L87.9036 42.3104L87.5384 41.3946Z" fill="#005DE8"/>
<path opacity="0.5" d="M89.7025 40.5274L88.4004 41.049L88.7656 41.9647L90.0676 41.4432L89.7025 40.5274Z" fill="#005DE8"/>
<path opacity="0.5" d="M91.8441 39.6688L90.542 40.1903L90.9072 41.1061L92.2092 40.5846L91.8441 39.6688Z" fill="#005DE8"/>
<path opacity="0.5" d="M94.0072 38.8023L92.7051 39.3238L93.0702 40.2395L94.3723 39.718L94.0072 38.8023Z" fill="#005DE8"/>
<path opacity="0.5" d="M96.1488 37.9443L94.8467 38.4658L95.2118 39.3815L96.5139 38.86L96.1488 37.9443Z" fill="#005DE8"/>
<path opacity="0.5" d="M98.3118 37.0771L97.0098 37.5986L97.3749 38.5144L98.677 37.9929L98.3118 37.0771Z" fill="#005DE8"/>
<path opacity="0.5" d="M88.1527 42.9207L86.8506 43.4422L87.2157 44.358L88.5178 43.8365L88.1527 42.9207Z" fill="#005DE8"/>
<path opacity="0.5" d="M90.3167 42.0542L89.0146 42.5757L89.3798 43.4915L90.6819 42.97L90.3167 42.0542Z" fill="#005DE8"/>
<path opacity="0.5" d="M92.4574 41.1962L91.1553 41.7177L91.5204 42.6335L92.8225 42.112L92.4574 41.1962Z" fill="#005DE8"/>
<path opacity="0.5" d="M94.6214 40.3301L93.3193 40.8516L93.6845 41.7673L94.9866 41.2458L94.6214 40.3301Z" fill="#005DE8"/>
<path opacity="0.5" d="M96.762 39.4728L95.46 39.9943L95.8251 40.91L97.1272 40.3885L96.762 39.4728Z" fill="#005DE8"/>
<path opacity="0.5" d="M98.9261 38.6039L97.624 39.1254L97.9892 40.0412L99.2913 39.5197L98.9261 38.6039Z" fill="#005DE8"/>
<path opacity="0.5" d="M88.7669 44.4482L87.4648 44.9697L87.83 45.8854L89.1321 45.3639L88.7669 44.4482Z" fill="#005DE8"/>
<path opacity="0.5" d="M90.9085 43.5902L89.6064 44.1117L89.9716 45.0274L91.2737 44.5059L90.9085 43.5902Z" fill="#005DE8"/>
<path opacity="0.5" d="M93.0716 42.723L91.7695 43.2445L92.1347 44.1602L93.4368 43.6387L93.0716 42.723Z" fill="#005DE8"/>
<path opacity="0.5" d="M95.2132 41.865L93.9111 42.3865L94.2763 43.3022L95.5784 42.7807L95.2132 41.865Z" fill="#005DE8"/>
<path opacity="0.5" d="M97.3763 40.9971L96.0742 41.5186L96.4394 42.4344L97.7415 41.9129L97.3763 40.9971Z" fill="#005DE8"/>
<path opacity="0.5" d="M99.5413 40.1307L98.2393 40.6522L98.6044 41.5679L99.9065 41.0464L99.5413 40.1307Z" fill="#005DE8"/>
</g>
<path d="M96.0157 34.4417C95.9419 34.2445 96.0403 34.0226 96.2371 33.924C96.4339 33.85 96.6553 33.9486 96.7537 34.1458C96.8275 34.3431 96.7291 34.565 96.5323 34.6636C96.3355 34.7622 96.0895 34.6636 96.0157 34.4417Z" fill="white"/>
<path d="M95.6954 39.9149C95.6216 39.7176 95.72 39.4957 95.9168 39.3971C96.1136 39.3232 96.335 39.4218 96.4334 39.619C96.5072 39.8162 96.4088 40.0381 96.212 40.1368C95.9906 40.2107 95.7692 40.1121 95.6954 39.9149Z" fill="white"/>
<path d="M90.7755 40.1121C90.7017 39.9149 90.8001 39.693 90.9969 39.5944C91.1937 39.5204 91.4151 39.619 91.5135 39.8163C91.5873 40.0135 91.4889 40.2354 91.2921 40.334C91.0953 40.4079 90.8493 40.3093 90.7755 40.1121Z" fill="white"/>
<path d="M87.7003 44.895C87.6265 44.6977 87.7249 44.4758 87.9217 44.3772C88.1185 44.3033 88.3399 44.4019 88.4383 44.5991C88.5121 44.7963 88.4137 45.0182 88.2169 45.1168C87.9955 45.1908 87.7741 45.0922 87.7003 44.895Z" fill="white"/>
<path d="M88.0451 44.8949C88.0205 44.8949 87.9959 44.8949 87.9713 44.8703C87.8975 44.821 87.8729 44.747 87.9221 44.6731L90.9971 39.8902C91.0217 39.8409 91.0709 39.8162 91.1201 39.8162L95.9171 39.619L96.2369 34.2937C96.2369 34.2198 96.3107 34.1458 96.3845 34.1458C96.4583 34.1458 96.5321 34.2198 96.5321 34.2937L96.2123 39.7423C96.2123 39.8162 96.1385 39.8655 96.0647 39.8902L91.2185 40.0874L88.1681 44.7963C88.1435 44.8703 88.0943 44.8949 88.0451 44.8949Z" fill="white"/>
<path d="M80.0732 26.0593C79.7042 28.0563 79.4582 32.1488 80.5652 40.26H90.4051C90.2329 38.8547 89.5195 31.3599 90.9709 24.2103C90.9709 24.2103 89.2735 23.8651 87.6745 23.7911C86.4199 23.7418 84.5995 23.6925 83.4926 23.7911C83.0252 23.8405 82.5824 23.8898 82.1642 23.9637C81.1064 24.161 80.27 24.9992 80.0732 26.0593Z" fill="#263238"/>
<path opacity="0.2" d="M81.6225 29.1164L79.7775 29.2643C79.7037 31.6558 79.8759 35.1566 80.5647 40.2354H80.6631C81.7455 36.5866 83.2215 31.3599 81.6225 29.1164Z" fill="black"/>
<path opacity="0.2" d="M86.3213 82.9114L86.3951 85.1056H88.2401L88.1417 82.9114H86.3213Z" fill="black"/>
<path d="M88.0182 18.0961C87.5508 19.8712 87.3541 20.9313 86.2716 21.6709C84.6234 22.7803 82.5816 21.4983 82.5324 19.6246C82.4832 17.9481 83.2704 15.3348 85.1646 14.965C87.0342 14.6199 88.5102 16.321 88.0182 18.0961Z" fill="#7F3E3B"/>
<path d="M83.8862 18.1207L82.9268 18.3673L83.8124 16.0498C83.714 15.8772 83.468 15.0636 83.7386 14.2747C83.8124 14.0528 84.0092 13.9296 84.2306 13.9049C86.2231 13.8556 88.2895 14.9897 89.3227 15.8279C89.5195 16.0005 89.5687 16.2717 89.4457 16.4936C89.2243 16.8634 88.9291 17.1592 88.5355 17.529C88.5109 18.17 87.4531 21.1039 86.8873 21.4244C86.2969 21.7449 85.19 21.6216 84.8948 21.0792C84.5996 20.5615 83.591 19.8465 83.8862 18.1207Z" fill="#263238"/>
<path d="M84.7715 18.1454C84.6731 18.6138 84.3779 19.0083 84.0581 19.2548C83.5907 19.6246 83.2217 19.2795 83.2463 18.7371C83.2709 18.244 83.5169 17.4551 84.0581 17.3071C84.5747 17.1592 84.8945 17.603 84.7715 18.1454Z" fill="#7F3E3B"/>
<path d="M101.622 86.6342C101.622 86.3876 101.647 86.1658 101.745 86.0918C101.794 86.0671 101.843 86.0425 101.942 86.0918C101.991 86.1164 102.016 86.1657 102.04 86.2397C102.114 86.5356 101.77 87.2012 101.745 87.2259C101.745 87.2505 101.72 87.2505 101.696 87.2505C101.671 87.2505 101.671 87.2259 101.671 87.2259C101.647 87.1026 101.622 86.8561 101.622 86.6342ZM101.966 86.3383C101.966 86.3137 101.966 86.289 101.966 86.2644C101.966 86.2151 101.942 86.1904 101.893 86.1904C101.843 86.1658 101.819 86.1658 101.794 86.1904C101.671 86.289 101.671 86.7328 101.72 87.0779C101.819 86.9054 101.966 86.5602 101.966 86.3383Z" fill="#005DE8"/>
<path d="M101.672 87.2012C101.77 86.9547 102.164 86.5109 102.385 86.5602C102.434 86.5602 102.484 86.6095 102.508 86.7328C102.508 86.8314 102.484 86.9054 102.434 86.9793C102.238 87.2259 101.746 87.2752 101.721 87.2752C101.696 87.2752 101.696 87.2752 101.672 87.2505C101.672 87.2259 101.672 87.2012 101.672 87.2012ZM102.41 86.7574V86.7328C102.41 86.6588 102.361 86.6588 102.361 86.6588C102.238 86.6342 101.918 86.93 101.795 87.1766C101.942 87.1519 102.238 87.0779 102.361 86.93C102.41 86.8561 102.41 86.8067 102.41 86.7574Z" fill="#005DE8"/>
<path d="M101.696 87.2259L99.9002 87.3491L98.8916 83.0347L100.687 82.9114L101.696 87.2259Z" fill="#7F3E3B"/>
<path d="M101.696 86.8067L99.7036 86.6342C99.6298 86.6342 99.556 86.6835 99.5314 86.7574L99.0148 88.3599C98.9656 88.5325 99.0886 88.7051 99.2608 88.7051C99.9742 88.7544 101.032 88.8037 101.942 88.8777C103 88.9763 102.311 88.9763 103.566 89.0749C104.328 89.1489 104.599 88.4092 104.279 88.3106C102.877 87.8669 102.606 87.571 102.139 87.004C102.016 86.856 101.844 86.8067 101.696 86.8067Z" fill="#263238"/>
<path opacity="0.2" d="M98.8916 83.0347L99.4082 85.2535L101.204 85.1303L100.687 82.9114L98.8916 83.0347Z" fill="black"/>
<path d="M84.0332 40.26C84.0332 40.26 88.2644 54.4361 89.8634 59.6874C91.6346 65.4564 98.3258 84.5632 98.3258 84.5632L101.573 83.8483C101.573 83.8483 96.9974 67.4287 95.0786 59.3915C93.6272 53.228 90.38 40.26 90.38 40.26H84.0332Z" fill="#005DE8"/>
<path d="M97.76 83.5524C97.7354 83.5524 98.0799 84.8345 98.0799 84.8345L101.991 84.4153L101.967 83.2566L97.76 83.5524Z" fill="#263238"/>
<path opacity="0.3" d="M86.3954 46.818C88.7324 47.1385 89.6672 55.3236 90.0116 60.1065C89.9624 59.9585 89.9132 59.8106 89.8886 59.6627C89.003 56.7782 87.3548 51.2557 86.0264 46.818C86.1248 46.818 86.2478 46.7933 86.3954 46.818Z" fill="black"/>
<path d="M80.54 40.26C80.54 40.26 81.9668 54.0662 82.5818 59.6874C83.2214 65.5304 85.6076 84.7112 85.6076 84.7112H88.7318C88.7318 84.7112 88.3628 65.8755 88.2398 60.1311C88.0922 53.869 87.0344 40.26 87.0344 40.26H80.54Z" fill="#005DE8"/>
<path d="M85.1164 83.4538C85.0918 83.4538 85.2886 84.7604 85.2886 84.7604H89.077L89.1754 83.6017L85.1164 83.4538Z" fill="#263238"/>
<path d="M67.2312 53.228C68.8548 55.8167 72.2742 56.581 74.8326 54.9538C77.4156 53.3266 78.1782 49.8997 76.5546 47.3357C74.931 44.7471 71.5116 43.9828 68.9532 45.61C66.3702 47.2371 65.6076 50.6394 67.2312 53.228ZM75.8166 47.8042C77.1942 49.9737 76.53 52.8582 74.3652 54.2142C72.2004 55.5948 69.3222 54.9292 67.9446 52.7596C66.567 50.5901 67.2312 47.7055 69.396 46.3249C71.5854 44.9689 74.4636 45.6346 75.8166 47.8042Z" fill="#263238"/>
<path opacity="0.2" d="M76.0384 51.231C75.5218 53.5239 73.234 54.9784 70.9462 54.4607C68.6584 53.943 67.207 51.6502 67.7236 49.3573C68.2402 47.0645 70.528 45.6099 72.8158 46.1277C75.1282 46.6454 76.555 48.9382 76.0384 51.231Z" fill="#005DE8"/>
<path d="M76.7021 46.67L77.2187 47.4836C77.2925 47.6069 77.2679 47.7795 77.1449 47.8534C77.0219 47.9274 76.8497 47.9027 76.7759 47.7795L76.2593 46.9659C76.1855 46.8426 76.2101 46.67 76.3331 46.5961C76.4807 46.4975 76.6283 46.5468 76.7021 46.67Z" fill="#263238"/>
<path d="M80.0726 44.3279C79.4822 44.747 78.8918 45.1662 78.3014 45.5853C77.711 46.0044 77.1452 46.4482 76.5794 46.9166C76.4564 47.0152 76.4072 47.2124 76.481 47.3604C76.5548 47.5329 76.7762 47.6315 76.973 47.5329C77.6372 47.2124 78.2768 46.8919 78.9164 46.5468C79.556 46.2016 80.1956 45.8565 80.8106 45.4867C81.3518 45.1662 81.8684 44.8703 82.4096 44.5252C82.5572 44.4265 82.6064 44.2293 82.508 44.0814L82.0898 43.4157C81.9914 43.2678 81.7946 43.2185 81.647 43.3171C81.0812 43.6376 80.5646 43.9828 80.0726 44.3279Z" fill="#263238"/>
<path d="M82.8034 26.7496C82.5082 28.2289 82.1884 29.7081 81.844 31.1874L80.8354 35.6004C80.5156 37.0304 80.2204 38.4849 79.9744 39.9642L79.2118 44.4019C79.138 44.7717 78.7936 45.0429 78.4 44.9689C78.0802 44.9196 77.8342 44.6238 77.8342 44.3033C77.785 42.7747 77.8096 41.2462 77.8834 39.693C77.9818 38.1644 78.1048 36.6112 78.3754 35.0827C78.6214 33.5788 78.892 32.0749 79.1626 30.5957C79.4578 29.1164 79.753 27.6125 80.0974 26.1579C80.2696 25.3937 81.0322 24.9252 81.7702 25.1225C82.4836 25.2704 82.951 26.01 82.8034 26.7496Z" fill="#005DE8"/>
<path d="M78.966 43.9828C78.843 43.8595 78.6462 43.7856 78.474 43.8349L78.0804 43.9335C77.8836 43.9828 77.7114 44.1554 77.6868 44.3526L77.5638 45.2401C77.5392 45.4867 77.5884 45.7579 77.7114 45.9798L78.2526 46.892C78.4002 47.0892 78.6462 47.1632 78.8676 47.1139L79.4334 46.9906C79.8024 46.9166 79.9992 46.5468 79.9008 46.2017L79.7532 45.7332C79.7778 45.7332 79.7778 44.821 78.966 43.9828Z" fill="#7F3E3B"/>
<path d="M84.7228 25.8867C85.6084 28.2782 82.5335 31.6557 82.5335 31.6557L78.6221 30.3491C78.6221 30.3491 78.9173 27.0948 80.2703 25.2704C81.9431 23.0269 84.0341 24.087 84.7228 25.8867Z" fill="#263238"/>
</svg>
