<svg width="292" height="210" viewBox="0 0 292 210" fill="none" xmlns="http://www.w3.org/2000/svg">
<path d="M279.295 209.54C260.89 209.54 12.0711 209.006 12.0711 208.969C11.9718 208.733 -19.5109 170.147 20.1312 129.797C39.7784 109.802 2.09851 83.9078 20.1312 61.6774C51.0302 23.5877 81.6063 45.0357 107.078 34.3303C111.574 32.4426 116.094 29.3999 120.615 24.7303C123.161 22.1098 125.943 19.8123 128.936 17.8252C129.395 17.5147 129.855 17.2166 130.327 16.931C132.115 15.8257 133.966 14.8197 135.878 13.9131C137.157 13.3046 138.461 12.7457 139.803 12.2365C141.914 11.4169 144.087 10.7214 146.298 10.1253C149.44 9.28077 152.681 8.64739 155.985 8.22513C157.426 8.03885 158.879 7.88982 160.344 7.77804C188.809 5.64194 220.826 17.6762 237.356 35.2618C240.684 38.8012 255.811 57.132 243.888 82.3181C236.362 98.2271 267.907 113.416 279.121 131.573C307.611 177.735 279.556 208.932 279.295 209.54Z" fill="#EBF3FA"/>
<g opacity="0.8">
<path opacity="0.8" d="M214.901 102.189C214.143 104.275 213.212 106.262 212.119 108.113C209.511 112.571 206.046 116.309 202.01 119.203C192.633 125.934 180.202 128.07 168.54 123.823C154.668 118.781 145.751 106.126 144.794 92.2783C144.67 90.4527 144.683 88.6147 144.844 86.7642C145.105 83.6594 145.788 80.5298 146.893 77.4622C147.8 74.9784 148.942 72.656 150.296 70.5075C150.309 70.4826 150.321 70.4578 150.346 70.4329C154.096 64.4966 159.437 59.9263 165.572 57.0575C167.311 56.2378 169.111 55.5671 170.974 55.0331C171.856 54.7847 172.75 54.5612 173.657 54.3749C179.991 53.0709 186.747 53.4559 193.267 55.8155C194.136 56.126 194.981 56.4738 195.8 56.8463C196.968 57.3679 198.085 57.9516 199.166 58.585C203.724 61.2427 207.536 64.807 210.455 68.9551C212.28 71.5383 213.746 74.345 214.839 77.3132C215.41 78.8656 215.882 80.4677 216.242 82.0822C216.466 83.0881 216.64 84.1189 216.776 85.1497C217.099 87.6335 217.174 90.1546 216.962 92.7006C216.714 95.8675 216.031 99.0592 214.901 102.189Z" fill="#D7E5FF"/>
<g opacity="0.8">
<path opacity="0.8" d="M174.873 70.4082C172.736 72.0599 173.308 76.4936 169.607 73.9973C165.906 71.5011 163.583 70.1474 162.54 72.3208C161.485 74.5065 164.776 75.6988 163.906 78.0708C163.037 80.4429 161.286 80.6913 159.435 78.7415C157.585 76.7917 157.535 74.9164 154.53 74.9785C151.537 75.0406 150.245 73.8111 150.394 71.5508C150.419 71.1533 150.382 70.8056 150.295 70.5076C150.307 70.4827 150.32 70.4579 150.345 70.433C154.095 64.4967 159.435 59.9264 165.571 57.0575C167.309 56.2379 169.11 55.5672 170.973 55.0332C171.855 54.7848 172.749 54.5613 173.655 54.375C174.699 54.7973 175.816 55.6666 176.413 57.3929C177.717 61.1931 179.84 60.299 178.039 63.4907C176.239 66.6824 176.984 67.4648 178.946 68.0485C180.908 68.6322 183.169 69.4519 182.858 71.0043C182.548 72.5567 177.009 68.744 174.873 70.4082Z" fill="#AEC3FF"/>
<path opacity="0.8" d="M214.9 102.189C214.143 104.275 213.211 106.263 212.119 108.113C209.511 112.572 206.046 116.31 202.009 119.203C201.003 119.166 200.084 118.831 199.314 118.148C195.688 114.906 200.494 111.466 203.015 109.802C205.549 108.125 200.854 107.579 198.482 104.313C196.11 101.046 201.662 96.6377 198.097 96.4017C194.533 96.1657 190.199 95.9298 189.478 92.1171C188.758 88.3044 192.496 89.0868 191.838 85.8702C191.18 82.6536 194.285 82.0575 197.601 82.9765C200.916 83.8956 201.326 81.449 205.437 82.5543C209.548 83.6596 207.61 88.7266 212.143 89.981C216.676 91.2477 216.105 92.1916 216.105 92.1916C216.428 92.3034 216.714 92.4772 216.95 92.7256C216.714 95.8677 216.031 99.0594 214.9 102.189Z" fill="#AEC3FF"/>
<path opacity="0.8" d="M216.778 85.1498C212.469 85.5969 212.754 80.2194 209.09 80.5299C205.402 80.8528 206.979 78.2199 205.154 75.5125C203.328 72.8051 197.156 74.2706 198.41 71.526C199.664 68.7813 203.104 70.9298 204.719 68.9552C206.333 66.9805 209.749 68.8683 209.749 68.8683C209.985 68.8683 210.221 68.8931 210.457 68.9552C212.282 71.5384 213.748 74.3451 214.841 77.3133C215.412 78.8657 215.884 80.4678 216.244 82.0823C216.468 83.1007 216.641 84.119 216.778 85.1498Z" fill="#AEC3FF"/>
<path opacity="0.8" d="M189.428 64.1738C189.428 64.1738 192.359 62.0998 189.602 60.1749C186.845 58.2499 186.509 59.3428 184.237 58.225C181.952 57.1073 180.35 58.61 181.405 61.2677C182.461 63.9255 182.498 68.297 184.858 66.8315C187.205 65.3537 187.466 63.6895 189.428 64.1738Z" fill="#AEC3FF"/>
</g>
</g>
<path d="M20.291 209.068H32.9089C33.5796 208.497 32.437 207.193 31.2448 207.106C30.7232 207.069 30.0649 207.181 29.3198 207.33C29.1459 205.02 28.1524 194.662 24.4142 195.072C20.2165 195.544 24.4142 199.642 25.6064 202.064C26.4882 203.865 27.4197 206.435 27.8419 207.653C27.5066 207.727 27.1464 207.802 26.7863 207.864C26.2274 206.15 24.1534 200.4 21.5205 200.735C18.4282 201.132 19.6701 203.43 21.8683 204.809C23.4828 205.815 25.4574 207.243 26.3889 207.938C25.594 208.062 24.7619 208.162 23.9174 208.137C21.7565 208.1 20.7009 208.733 20.291 209.068Z" fill="#A8D29F"/>
<path d="M221.099 209.068H209.375C208.742 208.534 209.81 207.33 210.915 207.243C211.399 207.205 212.008 207.305 212.703 207.454C212.865 205.318 213.784 195.68 217.261 196.065C221.161 196.5 217.261 200.3 216.156 202.561C215.336 204.225 214.479 206.622 214.082 207.752C214.405 207.826 214.728 207.888 215.063 207.951C215.585 206.361 217.509 201.021 219.956 201.331C222.825 201.691 221.67 203.84 219.633 205.107C218.143 206.038 216.305 207.367 215.436 208.013C216.168 208.137 216.951 208.211 217.733 208.199C219.733 208.162 220.714 208.758 221.099 209.068Z" fill="#A8D29F"/>
<path d="M229.471 132.256C229.471 132.256 229.744 129.486 228.304 129.573C226.851 129.672 226.466 130.331 226.627 130.865C226.788 131.399 228.204 133.162 228.204 133.162L229.471 132.256Z" fill="#FFB27D"/>
<path d="M252.071 137.807C252.071 137.807 250.469 139.695 247.016 141.868C246.693 142.079 246.346 142.278 245.985 142.489C244.644 143.272 243.067 144.066 241.254 144.812C241.055 144.898 240.819 144.985 240.558 145.085C238.484 145.83 234.684 146.898 232.324 146.985C232.113 146.997 231.927 146.997 231.741 146.985C228.151 146.836 227.717 132.902 227.717 132.902C227.717 132.902 228.114 131.511 229.965 131.858C229.965 131.858 232.771 139.732 233.777 140.378C234.672 140.949 239.801 133.175 244.21 132.628C247.153 132.268 252.071 137.807 252.071 137.807Z" fill="#191A89"/>
<path d="M242.422 205.79C242.422 205.79 242.683 208.857 242.037 209.18L233.729 209.168C233.729 209.168 233.729 208.212 235.057 208C236.386 207.789 238.733 207.007 239.131 205.268C239.541 203.53 242.422 205.79 242.422 205.79Z" fill="#1C3154"/>
<path d="M236.324 168.656C236.361 170.668 236.461 172.73 236.647 174.593C237.541 183.423 237.864 194.091 237.988 196.14C238.212 199.704 238.92 205.417 238.92 205.417C238.92 205.417 240.323 206.746 243.043 206.113C243.043 206.113 245.303 197.904 245.812 189.247C245.825 189.111 245.825 188.962 245.837 188.825C245.899 187.683 245.961 186.379 246.024 184.963C246.433 175.524 246.893 161.491 246.893 161.491L236.473 159.044C236.461 159.032 236.225 163.651 236.324 168.656Z" fill="#2A4E96"/>
<path d="M236.324 168.656C238.97 173.214 243.999 181.61 246.011 184.963C246.421 175.524 246.881 161.491 246.881 161.491L236.461 159.044C236.461 159.032 236.225 163.651 236.324 168.656Z" fill="#233862"/>
<path d="M240.546 145.097C238.472 145.842 234.672 146.91 232.312 146.997C232.673 146.935 235.306 146.414 236.274 145.234C237.317 143.967 239.081 140.552 240.472 141.943C241.13 142.601 240.931 143.905 240.546 145.097Z" fill="#6385DB"/>
<path d="M258.057 167.166C258.057 167.166 258.703 169.7 258.604 170.271C258.492 170.83 257.871 172.742 257.473 173.214C257.076 173.686 257.064 171.153 256.803 170.755C256.542 170.358 256.679 171.699 256.467 171.811C256.256 171.923 255.909 170.792 255.747 170.395C255.586 169.998 256.306 168.607 256.368 167.613C256.43 166.62 258.057 167.166 258.057 167.166Z" fill="#FFB27D"/>
<path d="M263.101 202.313C263.101 202.313 264.579 203.666 264.293 204.623C264.007 205.579 262.666 206.225 262.492 207.392C262.318 208.559 261.586 209.205 260.94 209.205C260.294 209.205 257.848 209.205 257.848 209.205C257.848 209.205 257.376 208.386 258.518 208.137C259.673 207.889 260.108 206.51 260.033 205.231C259.959 203.952 260.145 202.25 260.145 202.25L262.592 201.679L263.101 202.313Z" fill="#1C3154"/>
<path d="M238.102 161.702C238.102 161.702 247.851 182.566 253.042 191.719C258.233 200.872 259.848 203.43 259.848 203.43C259.848 203.43 262.816 202.263 263.089 201.456C263.089 201.456 261.102 183.783 257.625 179.474C255.662 177.04 253.352 169.737 253.241 167.179C253.129 164.62 250.856 158.522 250.856 158.522L238.102 161.702Z" fill="#2A4E96"/>
<path d="M236.284 160.609C236.284 160.609 239.464 164.024 244.854 165.055C247.226 165.514 252.032 165.949 253.224 164.26C253.51 163.863 253.51 163.279 253.448 162.36C253.286 159.975 252.69 155.38 255.385 146.14C255.633 145.283 255.807 144.451 255.907 143.669C256.49 138.937 256.428 135.373 252.33 133.46C246.182 130.604 243.661 132.951 243.661 132.951C243.661 132.951 240.395 134.479 238.905 138.925C235.912 147.854 236.284 160.609 236.284 160.609Z" fill="#191A89"/>
<path d="M248.645 132.69C247.614 133.423 245.788 133.858 244.05 132.988C243.913 132.926 243.938 132.007 243.963 131.101C244 130.219 244.075 129.349 244.075 129.349L246.26 127.909L248.347 126.543C248.111 131.262 249.117 132.355 248.645 132.69Z" fill="#FFB27D"/>
<path d="M247.997 128.493C247.997 128.493 246.582 130.616 243.974 131.101C244.011 130.219 244.098 129.238 244.098 129.238L246.271 127.909L247.997 128.493Z" fill="#ED985F"/>
<path d="M242.123 128.803C242.123 128.803 247.414 130.778 248.594 127.524C249.774 124.27 251.252 122.32 247.923 120.929C244.595 119.526 243.49 120.544 242.819 121.538C242.161 122.519 240.782 128.207 242.123 128.803Z" fill="#FFB27D"/>
<path d="M251.897 121.289C251.959 121.24 252.083 121.215 252.344 121.252C252.344 121.252 252.17 121.091 251.897 121.029C251.909 120.668 251.847 119.998 251.264 119.725C251.264 119.725 251.562 119.961 251.524 120.346C250.966 119.476 249.55 118.657 245.302 118.16C239.689 117.502 240.819 121.401 241.452 121.96C242.086 122.519 244.11 121.724 245.427 122.097C246.743 122.469 246.606 124.444 247.016 124.792C247.414 125.139 247.327 124.643 247.997 124.481C248.668 124.32 248.519 125.351 248.221 125.971C247.91 126.592 248.581 127.636 248.581 127.636C248.581 127.636 248.581 127.636 249.612 126.891C250.643 126.145 252.207 122.432 251.984 121.525C251.934 121.451 251.909 121.364 251.897 121.289Z" fill="#2C3A64"/>
<path d="M253.45 162.372C253.288 159.988 252.692 155.393 255.387 146.153C255.635 145.296 255.809 144.464 255.909 143.681C253.897 143.023 250.245 144.488 250.245 144.488C250.245 144.488 249.388 156.709 253.45 162.372Z" fill="#6385DB"/>
<path d="M253.438 134.094C253.438 134.094 255.909 134.988 257.486 141.533C258.53 145.855 260.442 152.201 260.653 154.2C260.864 156.2 258.468 167.874 258.468 167.874C258.468 167.874 258.132 168.122 257.3 167.961C256.505 167.799 256.133 167.265 256.133 167.265C256.133 167.265 255.561 159.479 255.71 155.803C255.773 154.275 248.644 144.613 244.794 143.371C243.266 142.874 253.438 134.094 253.438 134.094Z" fill="#191A89"/>
<path d="M218.898 125.636C218.898 125.636 226.039 125.438 234.273 126.953L235.13 124.779L236.074 122.407C236.074 122.407 227.803 118.843 222.835 113.888L218.898 125.636Z" fill="#AEC3FF"/>
<path d="M222.95 113.776L218.852 125.872C218.256 125.698 217.921 125.053 218.132 124.456L221.733 114.298C221.92 113.801 222.478 113.565 222.95 113.776Z" fill="#F99746"/>
<path d="M226.86 134.64C227.655 134.802 228.437 134.28 228.599 133.485L230.015 126.431C230.176 125.636 229.654 124.854 228.86 124.692C228.065 124.531 227.282 125.053 227.121 125.847L225.705 132.902C225.544 133.696 226.065 134.479 226.86 134.64Z" fill="#F99746"/>
<path d="M218.898 125.636C218.898 125.636 226.039 125.437 234.273 126.953L235.13 124.779C227.393 123.202 218.898 125.636 218.898 125.636Z" fill="#191A89"/>
<path d="M231.988 126.506L234.224 126.903C234.186 126.903 236.298 127.313 236.981 125.45C237.043 125.326 237.08 125.202 237.117 125.053C237.651 122.73 236.372 122.295 236.372 122.295L233.503 121.178L232.597 124.407C232.597 124.407 232.597 124.407 232.597 124.419L231.988 126.506Z" fill="#F99746"/>
<path d="M231.988 126.506L234.224 126.903C234.186 126.903 236.298 127.313 236.981 125.45C235.714 124.531 232.584 124.407 232.584 124.407C232.584 124.407 232.584 124.407 232.584 124.419L231.988 126.506Z" fill="#ED7D2B"/>
<path d="M227.045 127.797C227.045 127.797 228.138 128.232 227.939 128.716C227.74 129.2 226.349 129.859 226.138 129.474C225.915 129.101 226.362 127.4 227.045 127.797Z" fill="#FFB27D"/>
<path d="M229.48 131.809C229.48 131.809 229.691 130.691 229.704 130.182C229.716 129.672 229.778 129.25 229.654 129.238C229.53 129.225 229.443 129.312 229.393 129.486C229.344 129.648 229.157 130.678 229.157 130.678L229.257 131.659L229.48 131.809Z" fill="#FFB27D"/>
<path d="M121.569 131.089L115.384 204.585C115.384 204.585 114.738 209.044 118.054 209.044C123.506 209.056 145.177 209.044 145.177 209.044C145.177 209.044 141.079 208.112 141.129 206.026C141.191 203.567 148.357 130.381 148.357 130.381L121.569 131.089Z" fill="#7599EA"/>
<path d="M147.215 207.74C146.147 207.74 125.159 207.777 119.856 207.715C117.546 207.69 117.136 205.653 117.123 204.349C117.111 203.716 117.198 203.257 117.198 203.257L117.359 201.344L117.769 196.476L118.129 192.179L118.589 186.652L118.986 181.982L123.383 129.76L150.158 129.064C150.158 129.064 147.141 159.69 145.004 181.982C144.768 184.466 144.545 186.851 144.334 189.074C144.272 189.782 144.197 190.477 144.135 191.148C143.936 193.259 143.75 195.196 143.601 196.91C143.514 197.817 143.44 198.649 143.377 199.419C143.104 202.424 142.943 204.349 142.943 204.71C142.943 204.921 142.955 205.119 142.992 205.306C143.415 207.641 146.818 207.74 147.215 207.74Z" fill="#90AFF4"/>
<path d="M56.543 91.0862L71.5951 151.568L73.6566 159.851L80.6735 188.018H210.951L185.107 91.0862H56.543Z" fill="#AEC3FF"/>
<path d="M56.5432 91.0862L54.4443 91.7817L77.8918 190.129L80.6737 188.018L56.5432 91.0862Z" fill="#90AFF4"/>
<path d="M77.8916 190.129H207.374L210.951 188.018H80.6735L77.8916 190.129Z" fill="#7599EA"/>
<path d="M123.373 209.075H151.403V207.746H123.373V209.075Z" fill="#AEC3FF"/>
<path d="M144.272 190.129L144.123 191.148L117.757 196.476L118.117 192.166L118.291 190.129H144.272Z" fill="#5888DD"/>
<path opacity="0.4" d="M147.215 207.74C146.147 207.74 125.158 207.777 119.855 207.715C117.545 207.69 117.135 205.654 117.123 204.35L143.365 199.407C143.092 202.412 142.93 204.337 142.93 204.697C142.93 204.908 142.943 205.107 142.98 205.293C143.415 207.641 146.817 207.74 147.215 207.74Z" fill="#5888DD"/>
<path d="M56.543 91.0862H185.107L205.958 168.992H75.9293L56.543 91.0862Z" fill="#AEC3FF"/>
<path d="M199.899 165.614H79.5195L75.2224 148.475L73.5583 141.856L72.8752 139.149L68.454 121.538L68.2304 120.619L65.8956 111.305L64.84 107.144L63.9582 103.592L61.8594 95.259H180.5L182.798 103.592L183.779 107.144L184.934 111.305L192.497 138.751L193.13 141.073L193.428 142.154L198.657 161.093L199.899 165.614Z" fill="#191A89"/>
<path d="M182.798 103.592H63.9582L61.8594 95.259H180.5L182.798 103.592Z" fill="#607CF4"/>
<path d="M66.7749 99.022C66.6259 98.4507 66.9861 97.9788 67.5573 97.9788C68.1286 97.9788 68.7123 98.4507 68.8614 99.022C69.0104 99.5933 68.6502 100.065 68.0789 100.065C67.4952 100.065 66.9115 99.6057 66.7749 99.022Z" fill="#E9F3FE"/>
<path d="M70.228 99.022C70.079 98.4507 70.4392 97.9788 71.0105 97.9788C71.5817 97.9788 72.1654 98.4507 72.3145 99.022C72.4635 99.5933 72.1034 100.065 71.5321 100.065C70.9608 100.065 70.3771 99.6057 70.228 99.022Z" fill="#E9F3FE"/>
<path d="M73.9546 99.022C73.8056 98.4507 74.1657 97.9788 74.737 97.9788C75.3083 97.9788 75.892 98.4507 76.041 99.022C76.1901 99.5933 75.8299 100.065 75.2586 100.065C74.6873 100.065 74.1036 99.6057 73.9546 99.022Z" fill="#E9F3FE"/>
<path d="M156.906 46.8364C161.774 41.1236 169.275 29.6483 174.33 23.774C175.373 22.5693 174.504 20.694 172.914 20.694H163.724L172.393 1.08408C172.765 0.25199 171.623 -0.418647 171.076 0.314086L150.1 28.3815C149.491 29.2012 150.162 30.3562 151.168 30.232L161.575 28.9528L155.391 45.9547C155.055 46.8861 156.26 47.594 156.906 46.8364Z" fill="#F77D48"/>
<path d="M113.634 81.6351C114.727 76.0216 115.423 65.5895 116.578 59.8021C116.814 58.6099 115.547 57.6909 114.479 58.287L108.369 61.7271L106.791 45.4579C106.729 44.7625 105.723 44.75 105.624 45.4331L102.196 71.9108C102.097 72.6808 102.966 73.2024 103.6 72.7305L110.033 67.9864L112.281 81.5978C112.417 82.3678 113.485 82.3802 113.634 81.6351Z" fill="#AEC3FF"/>
<path d="M76.043 136.329C76.043 136.329 76.3659 135.597 76.5894 135.236C76.8005 134.889 77.7071 133.858 77.8686 134.094C78.0176 134.33 78.6386 135.882 78.3157 136.317C77.9928 136.752 78.3405 137.509 76.7012 137.969L76.043 136.329Z" fill="#FFB27D"/>
<path d="M57.9102 131.672C57.9102 131.672 66.2683 138.652 69.5221 138.006C72.0681 137.497 76.1043 136.218 76.1043 136.218C76.1043 136.218 77.1723 137.224 76.8619 138.441C76.8619 138.441 71.7327 143.272 68.0691 143.296C62.3562 143.346 59.6613 140.465 59.6613 140.465L57.9102 131.672Z" fill="#ED7D2B"/>
<path d="M43.2588 205.243C43.2588 205.243 43.5072 209.155 44.2523 209.217C44.3517 209.23 48.0899 209.23 48.0899 209.23L52.8588 209.205C52.8588 209.205 52.8216 208.05 51.4306 207.814C50.0397 207.566 47.7049 206.584 46.8604 204.746C45.9786 202.797 43.2588 205.243 43.2588 205.243Z" fill="#113C68"/>
<path d="M42.9835 205.517C42.9835 205.517 44.4365 206.001 45.5667 206.001C46.8335 206.001 47.976 205.653 47.976 205.653C47.976 205.653 48.2492 203.008 49.752 197.196C50.5344 194.141 51.6645 190.216 53.2666 185.348C57.7003 171.873 59.0415 163.999 59.1657 163.254C59.1781 163.217 59.1782 163.192 59.1782 163.192L59.1657 163.18L45.5543 157.206C45.5543 157.206 47.2309 175.773 45.0948 182.901C44.7967 183.895 44.5359 185.062 44.3124 186.317C42.9462 194.054 42.9835 205.517 42.9835 205.517Z" fill="#2A4E96"/>
<path d="M49.7522 197.196C50.5346 194.141 51.6648 190.216 53.2669 185.348C57.7005 171.873 59.0418 163.999 59.166 163.254C59.166 163.229 59.166 163.217 59.166 163.192L45.5545 157.218C45.5545 157.218 47.2311 175.785 45.095 182.914C44.7845 183.895 49.7522 197.196 49.7522 197.196Z" fill="#233862"/>
<path d="M53.8857 205.243C53.8857 205.243 54.1341 209.155 54.8793 209.217C54.9786 209.23 58.7168 209.23 58.7168 209.23L63.4858 209.205C63.4858 209.205 63.4485 208.05 62.0576 207.814C60.6666 207.566 58.3318 206.584 57.4873 204.746C56.6055 202.797 53.8857 205.243 53.8857 205.243Z" fill="#15447C"/>
<path d="M61.599 157.641C61.599 157.641 61.7728 169.675 59.6988 184.441C57.6248 199.208 58.3203 205.492 58.3203 205.492C58.3203 205.492 56.8921 205.951 56.3084 206.001C54.8429 206.125 53.3278 205.653 53.3278 205.653C53.3278 205.653 50.3472 190.874 51.2041 183.485C52.061 176.096 47.1182 158.113 47.1182 158.113L61.599 157.641Z" fill="#2A4E96"/>
<path d="M51.9482 129.486L54.6059 131.225L57.0277 130.542C57.4748 129.908 57.5866 128.691 57.599 127.636C57.6114 126.592 57.4996 125.698 57.4996 125.698L53.9105 124.121L52.5692 123.537C52.5692 123.562 52.6686 124.63 52.6934 124.792C52.9418 127.586 51.9482 129.486 51.9482 129.486Z" fill="#FFB27D"/>
<path d="M61.6618 160.981C58.3583 164.173 45.8397 163.639 45.0697 160.124C44.2997 156.61 45.9142 130.169 51.5649 128.517C52.7324 128.17 59.0041 130.194 59.0041 130.194C59.0041 130.194 59.9852 132.765 60.631 136.044C60.7552 136.677 61.1153 143.433 61.401 149.754C61.5252 152.71 61.6369 155.566 61.6866 157.665C61.7363 159.628 61.7363 160.919 61.6618 160.981Z" fill="#F99746"/>
<path d="M52.97 124.841C53.7028 126.071 56.2487 127.151 57.6024 127.636C57.6148 126.593 57.503 125.698 57.503 125.698L53.9139 124.121C53.119 124.121 52.6347 124.295 52.97 124.841Z" fill="#FCA56B"/>
<path d="M58.8541 125.487C58.8541 125.487 53.0791 127.288 52.0111 123.674C50.943 120.06 49.4776 117.862 53.1288 116.558C56.7677 115.254 57.8978 116.421 58.5436 117.539C59.1894 118.657 60.3195 124.928 58.8541 125.487Z" fill="#FFB27D"/>
<path d="M58.3109 117.191C58.3109 117.191 57.9384 121.401 57.069 121.215C56.1997 121.029 55.2434 120.644 55.3676 121.911C55.4918 123.177 54.5231 125.351 53.2687 125.351C50.5738 125.338 47.6553 118.433 48.388 117.129C50.5241 113.354 61.3909 112.584 58.3109 117.191Z" fill="#163560"/>
<path d="M57.4655 128.605C57.391 128.567 53.1685 126.68 52.6717 126.841C52.175 127.003 51.5664 128.518 51.5664 128.518L59.0055 130.194C59.0055 130.194 58.4094 129.002 57.4655 128.605Z" fill="#ED7D2B"/>
<path d="M83.7687 149.071L60.0852 171.376C59.6257 171.811 59.0296 171.947 58.7812 171.687L57.9864 170.842C57.738 170.581 57.9119 169.998 58.3714 169.563L82.0548 147.258C82.5143 146.823 83.1104 146.687 83.3588 146.948L84.1536 147.792C84.402 148.065 84.2282 148.637 83.7687 149.071Z" fill="#1F4D84"/>
<path d="M70.4801 161.59L60.0852 171.376C59.6257 171.811 59.0296 171.947 58.7812 171.686L57.9864 170.842C57.738 170.581 57.9119 169.997 58.3714 169.563L68.7662 159.776L70.4801 161.59Z" fill="#191A89"/>
<path d="M78.3285 140.651C79.2351 143.644 80.9241 146.451 83.3707 148.761C90.8346 155.79 102.583 155.43 109.612 147.966C116.542 140.601 116.282 129.064 109.103 122.01C109.004 121.91 108.905 121.824 108.818 121.724C101.354 114.695 89.6051 115.055 82.5758 122.519C77.8317 127.536 76.4532 134.504 78.3285 140.651ZM83.6315 123.525C87.7174 119.178 93.542 117.452 99.0189 118.396C102.211 118.942 105.278 120.408 107.799 122.792C114.679 129.263 115.002 140.08 108.532 146.96C106.147 149.493 103.179 151.133 100.037 151.878C94.6349 153.157 88.7109 151.779 84.3642 147.693C77.484 141.222 77.1611 130.405 83.6315 123.525Z" fill="#1F4D84"/>
<g opacity="0.5">
<path opacity="0.5" d="M108.531 146.96C106.146 149.493 103.178 151.133 100.036 151.878C94.6338 153.157 88.7098 151.779 84.3631 147.693C77.4829 141.222 77.16 130.405 83.6304 123.525C87.7163 119.178 93.5409 117.452 99.0178 118.396C102.21 118.942 105.277 120.408 107.798 122.792C114.678 129.25 115.014 140.08 108.531 146.96Z" fill="#B3CFF9"/>
</g>
<path d="M61.6873 157.665C48.6347 148.363 49.7152 135.957 49.7152 135.957C54.4841 138.652 59.2159 144.6 61.3892 149.754C61.5134 152.71 61.6252 155.566 61.6873 157.665Z" fill="#ED7D2B"/>
<path d="M74.5619 153.43C75.4809 153.219 76.1019 152.524 76.2261 152.399C76.2261 152.399 76.6235 152.424 76.164 153.269C76.1267 153.343 76.0398 153.517 75.9777 153.641C75.9528 153.691 75.9901 153.753 76.0398 153.753C76.5738 153.79 77.1078 153.579 78.1262 153.803C78.2628 153.828 78.3125 154.175 78.3001 154.312C78.2877 154.56 78.3125 154.834 78.0268 155.206C77.8654 155.43 77.4059 155.653 76.3751 156.075C75.9901 156.237 74.8724 156.113 73.8292 155.753L72.9971 155.368L73.2579 153.815L73.469 153.865C73.8043 153.927 74.2141 153.517 74.5619 153.43Z" fill="#FFB27D"/>
<path d="M53.7611 130.194C53.7611 130.194 42.0373 132.43 57.2136 149.407C59.6354 152.126 72.7501 155.653 72.7501 155.653C72.7501 155.653 74.0789 154.523 73.4083 153.604C73.4083 153.604 64.3795 147.047 62.3924 146.004C61.4982 145.532 58.9275 135.534 57.462 133.125C56.0214 130.741 53.7611 130.194 53.7611 130.194Z" fill="#F99746"/>
<path d="M76.3662 136.528C76.3662 136.528 76.7512 135.795 76.8257 135.41C76.9002 135.025 77.3846 133.895 77.5833 133.696C77.6578 133.622 77.931 133.721 77.9559 134.057C77.9683 134.206 77.8938 134.479 77.7696 134.802C77.5585 135.323 77.5957 136.044 77.5212 136.28C77.3349 136.876 76.3662 136.528 76.3662 136.528Z" fill="#FFB27D"/>
<path d="M81.0335 107.43C80.8348 107.653 80.8099 107.914 80.9093 108.187C81.0956 108.696 81.6917 109.255 82.3996 109.814C82.4865 109.889 82.5735 109.951 82.6356 110.013C82.648 110.025 82.6728 110.05 82.6852 110.063C82.6977 110.075 82.7101 110.087 82.7225 110.1C83.3807 110.696 83.1323 110.845 84.2997 112.062C85.641 113.453 86.56 113.478 86.8208 113.354C87.0444 113.242 86.5973 112.509 86.0881 111.677C86.0633 111.64 86.0384 111.603 86.0136 111.553C85.9515 111.441 85.877 111.329 85.8149 111.218C85.2312 110.224 85.3802 109.752 85.5168 108.262C85.6286 107.057 87.3921 101.518 87.3921 101.518L84.8338 101.071C84.8338 101.071 84.0638 105.48 83.2069 106.163C82.7473 106.523 82.2382 106.523 81.8035 106.796C81.7786 106.821 81.7414 106.834 81.7166 106.858C81.4806 107.032 81.2322 107.206 81.0335 107.43Z" fill="#FFB27D"/>
<path d="M81.0335 107.43C80.8348 107.653 80.8099 107.914 80.9093 108.187C81.1328 108.696 81.7166 109.255 82.3996 109.814C82.4865 109.889 82.5611 109.951 82.6356 110.013C82.648 110.025 82.6728 110.05 82.6852 110.063C82.6977 110.075 82.7101 110.087 82.7225 110.1C83.3807 110.696 83.1323 110.845 84.2997 112.062C85.641 113.453 86.56 113.478 86.8208 113.354C87.0444 113.242 86.5973 112.509 86.0881 111.677C85.8273 111.578 84.6226 111.093 83.7036 109.914C82.9336 108.92 82.3996 107.666 81.878 106.883C81.8159 106.871 81.7911 106.871 81.729 106.858C81.4806 107.032 81.2322 107.206 81.0335 107.43Z" fill="#233862"/>
<path d="M101.699 105.84C101.86 106.635 102.99 106.498 104.245 106.188C105.499 105.877 105.201 106.25 107.002 106.051C108.79 105.852 109.337 105.182 109.399 104.921C109.448 104.685 108.567 104.598 107.61 104.486C107.486 104.474 107.374 104.462 107.25 104.449C106.182 104.312 105.387 103.617 104.419 103.058C103.5 102.524 102.121 100.326 102.121 100.326L99.6621 100.525C99.6621 100.525 100.954 102.487 101.45 103.344C101.749 103.841 101.724 104.511 101.686 105.02C101.662 105.281 101.649 105.567 101.699 105.84Z" fill="#FFB27D"/>
<path d="M104.243 106.188C105.497 105.877 105.199 106.25 107 106.051C108.788 105.852 109.335 105.182 109.397 104.921C109.446 104.685 108.565 104.598 107.608 104.486L107.596 104.499C107.596 104.499 106.515 105.256 105.025 105.294C103.808 105.318 102.516 104.971 101.684 104.983C101.66 105.256 101.647 105.542 101.709 105.828C101.858 106.635 102.988 106.498 104.243 106.188Z" fill="#233862"/>
<path d="M92.2852 90.1051L89.9876 96.2898L86.9822 104.362C86.9822 104.362 86.1625 104.437 85.3925 104.213C84.6722 104.002 83.8525 103.468 83.8525 103.468C83.8525 103.468 84.6846 94.7995 86.2495 89.8194C86.6469 88.5402 87.0939 87.5094 87.5907 86.9257C89.9876 84.0817 92.2852 90.1051 92.2852 90.1051Z" fill="#233862"/>
<path d="M89.9513 80.2815C88.6473 79.8592 85.232 80.2691 81.5187 80.9397C80.5003 81.126 79.4695 80.6541 78.9231 79.7723L69.5963 79.0396C69.5963 79.0396 66.5163 85.8577 68.2053 90.2044C68.4537 90.8378 69.0001 91.2476 69.8322 91.2601C69.8322 91.2601 75.4705 91.2725 77.2713 91.2725C81.9037 91.2725 87.0825 88.0932 87.7531 87.9565C88.846 87.733 89.2807 89.9312 90.386 92.2288C91.4789 94.5263 100.682 102.425 100.682 102.425C100.682 102.425 102.097 102.437 102.681 102.226C103.314 101.99 103.538 101.68 103.538 101.68C103.538 101.68 93.3418 81.3744 89.9513 80.2815Z" fill="#2A4E96"/>
<path d="M77.9395 52.4003C77.244 51.9904 76.5733 51.9283 76.1635 51.9408C75.8779 51.9532 75.5922 51.9283 75.3066 51.8911C71.7547 51.3695 69.6062 56.5359 69.482 58.1007C69.246 60.9695 67.7309 61.4042 65.5948 63.205C61.3101 66.8065 62.5645 70.9918 64.9117 72.5442C66.3151 73.4757 68.7865 72.5442 68.7865 72.5442C68.8238 72.5691 75.555 68.7812 78.8833 66.9556C83.851 66.2228 79.9389 53.5925 77.9395 52.4003Z" fill="#233862"/>
<path d="M76.0883 65.3784C76.1007 65.3908 74.4489 65.9497 73.356 65.4654C72.3252 65.0058 71.5304 63.3044 71.5553 63.3044C72.0272 63.2796 72.5488 62.8697 72.9462 60.1624L73.1449 60.2369L76.5229 61.454C76.5229 61.454 76.2746 62.5344 76.1255 63.5652C75.9765 64.4221 75.902 65.2542 76.0883 65.3784Z" fill="#FFB27D"/>
<path d="M76.5118 61.4415C76.5118 61.4415 76.3752 62.0252 76.1765 63.118C74.2391 62.7703 73.407 61.28 73.1338 60.2244L76.5118 61.4415Z" fill="#ED975D"/>
<path d="M77.0217 62.522C77.0217 62.522 72.4018 61.9011 72.8365 59.0322C73.2711 56.1634 72.9607 54.1515 75.9289 54.4247C78.897 54.6979 79.3069 55.8778 79.3938 56.8713C79.4807 57.8648 78.2388 62.609 77.0217 62.522Z" fill="#FFB27D"/>
<path d="M79.2215 55.2939C79.2215 55.2939 76.2658 57.8398 74.2539 58.051C72.2419 58.2497 71.4844 57.6039 71.4844 57.6039C71.4844 57.6039 72.6642 56.6228 73.3845 55.0331C73.5956 54.5612 74.0427 54.2383 74.5519 54.201C75.9801 54.0768 78.7124 54.0147 79.2215 55.2939Z" fill="#233862"/>
<path d="M77.3691 55.0705C77.3691 55.0705 78.3627 56.0267 78.6732 56.7346C78.9712 57.4177 79.0581 59.057 78.8222 59.7028C78.8222 59.7028 80.3622 56.7098 79.4928 55.2443C78.5738 53.7044 77.3691 55.0705 77.3691 55.0705Z" fill="#233862"/>
<path d="M79.9789 72.1842C79.8298 81.5358 79.9416 79.586 78.9108 80.4678C78.6624 80.6789 77.9669 80.8031 77.0603 80.8652C74.1915 81.0515 69.1493 80.5796 68.963 80.0455C68.3048 78.2075 68.7643 77.6362 68.2179 74.8295C68.1558 74.5314 68.0937 74.2085 68.0067 73.8608C67.5472 71.9358 67.1001 71.2776 68.7271 68.1852C70.2049 65.3784 71.7449 63.1057 71.8815 63.1802C75.7812 65.5026 76.1041 63.5528 76.1041 63.5528C76.1041 63.5528 80.0534 67.6263 79.9789 72.1842Z" fill="#F99746"/>
<path d="M89.9876 96.3022L86.9822 104.375C86.9822 104.375 86.1625 104.449 85.3925 104.226C84.6722 104.015 83.8525 103.481 83.8525 103.481C83.8525 103.481 84.6846 94.8119 86.2495 89.8318L89.9876 96.3022Z" fill="#2A4E96"/>
<path d="M76.1133 63.5527C76.1133 63.5527 80.1371 64.2358 80.5966 65.9621C81.0686 67.6883 82.6209 78.195 82.6209 78.195C82.6209 78.195 81.4908 79.3003 80.5469 78.3564C79.6031 77.4126 77.5787 68.5328 77.5787 68.5328L76.1133 63.5527Z" fill="#F99746"/>
<path d="M77.072 80.8651C74.2031 81.0513 69.1609 80.5794 68.9746 80.0454C68.3164 78.2073 68.7759 77.6361 68.2295 74.8293L69.608 70.9297C69.608 70.9297 69.3721 75.264 70.6512 76.4066C71.9304 77.5491 75.8921 78.6048 76.5131 79.561C76.8112 80.0454 77.0099 80.4925 77.072 80.8651Z" fill="#ED7D2B"/>
<path d="M73.7803 79.0396C73.7803 79.0396 76.6119 78.4062 77.0714 78.667C77.5309 78.9154 78.6486 79.8344 78.7852 80.1449C78.9218 80.4678 77.7668 79.9089 77.3943 79.7971C77.1459 79.7351 76.5125 79.9586 76.1896 80.0579C74.8483 80.505 74.0411 80.2691 74.0411 80.2691L73.7803 79.0396Z" fill="#FFB27D"/>
<path d="M71.8928 63.1802C71.8928 63.1802 68.0925 63.4161 66.7761 65.2418C64.9256 67.825 61.2495 78.8284 63.3484 80.2938C65.7204 81.9456 74.1283 80.7285 74.1283 80.7285C74.1283 80.7285 74.4139 79.4245 74.0165 78.7911C73.6315 78.1577 67.2977 77.1269 66.9996 76.8413C66.7016 76.5432 70.6509 71.1409 70.6509 70.2715C70.6757 69.3898 71.8928 63.1802 71.8928 63.1802Z" fill="#F99746"/>
<path d="M77.208 79.4492C77.208 79.4492 77.8041 80.2192 77.9904 80.3061C78.1891 80.3931 78.3133 80.3807 78.3133 80.3807L77.9159 79.6603L77.208 79.4492Z" fill="#FFB27D"/>
<path d="M77.0723 78.667L78.7985 79.4991C78.7985 79.4991 78.724 79.6233 78.5129 79.6109C78.3018 79.5984 77.7677 79.3997 77.7677 79.3997L77.0723 78.667Z" fill="#FFB27D"/>
<path d="M91.7757 80.6416L73.7803 80.6292V81.0266L91.6267 81.039L91.7757 80.6416Z" fill="#233862"/>
<path d="M77.9893 81.0265L91.6255 81.0389L95.7239 70.8427L82.1124 70.8303L77.9893 81.0265Z" fill="#233862"/>
<path d="M88.1853 75.9346C88.2846 75.5745 88.0859 75.2888 87.7258 75.2888C87.3656 75.2888 86.993 75.5745 86.8937 75.9346C86.7943 76.2948 86.993 76.5804 87.3532 76.5804C87.7009 76.5804 88.0735 76.2948 88.1853 75.9346Z" fill="white"/>
<path d="M180.436 119.476C178.598 118.868 177.331 119.638 177.331 119.638C172.041 119.849 171.842 125.276 172.463 127.288C173.332 130.12 170.252 132.355 173.667 133.498C177.642 134.826 180.97 133.249 180.734 133.932C193.29 134.938 184.609 120.867 180.436 119.476Z" fill="#163560"/>
<path d="M174.947 145.842C174.947 145.842 174.45 146.836 173.531 147.978C172.438 149.357 166.663 146.091 167.16 145.842C167.657 145.594 170.551 137.248 171.246 136.205C171.942 135.162 174.289 134.615 174.289 134.615L174.947 145.842Z" fill="#F99746"/>
<path d="M194.407 202.126C194.407 202.126 195.997 203.579 195.687 204.61C195.376 205.641 193.935 206.324 193.749 207.591C193.55 208.858 192.781 209.541 192.085 209.541C191.39 209.541 188.757 209.541 188.757 209.541C188.757 209.541 188.247 208.659 189.489 208.386C190.731 208.112 191.203 206.635 191.116 205.256C191.029 203.878 191.228 202.052 191.228 202.052L193.861 201.443L194.407 202.126Z" fill="#1F447F"/>
<path d="M180.931 202.735C180.931 202.735 181.503 208.882 180.807 209.23L171.865 209.218C171.865 209.218 171.865 208.187 173.306 207.951C174.746 207.727 177.268 206.883 177.69 205.008C178.112 203.132 180.931 202.735 180.931 202.735Z" fill="#1C3154"/>
<path d="M187.811 141.694C187.811 141.694 187.947 143.57 187.811 145.83C187.724 147.32 186.209 149.32 185.998 149.816C185.463 151.058 184.855 151.257 184.855 151.257L180.16 152.412L178.509 152.822L173.305 151.269C173.305 151.269 170.933 144.65 171.889 140.924C172.846 137.198 174.299 134.615 174.299 134.615C174.299 134.615 177.838 133.82 184.073 134.268L187.811 141.694Z" fill="#F99746"/>
<path d="M188.26 145.879C188.173 147.37 186.211 149.32 186 149.816C185.466 151.058 184.857 151.257 184.857 151.257L180.163 152.412L179.318 149.978C179.318 149.978 186.174 148.177 185.068 141.831L188.26 145.879Z" fill="#ED7D2B"/>
<path d="M173.628 152.263C173.628 152.263 171.045 160.286 170.884 163.018C170.722 165.75 175.814 201.816 176.013 203.083C176.211 204.275 177.677 205.02 177.677 205.02C177.677 205.02 178.36 205.417 179.316 205.144C180.658 204.772 181.08 204.312 181.08 204.312C181.08 204.312 183.092 178.592 181.85 169.402C180.608 160.211 180.595 152.263 180.595 152.263H173.628Z" fill="#233862"/>
<path d="M184.557 152.015C184.557 152.015 188.494 157.293 188.854 160.857C189.227 164.421 189.426 176.952 190.208 180.43C190.991 183.907 193.859 190.601 193.859 201.443C193.859 201.443 193.561 202.064 192.642 202.399C192.344 202.511 191.959 202.611 191.574 202.697C190.817 202.871 190.034 202.499 189.687 201.803C187.749 197.904 181.564 185.298 181.254 182.69C181.03 180.84 179.081 168.594 174.821 161.404C173.802 159.677 175.442 152.822 175.442 152.822L184.557 152.015Z" fill="#2A4E96"/>
<path d="M173.22 151.021C173.22 151.021 174.251 151.841 176.312 151.878C178.771 151.928 184.857 151.257 184.857 151.257C184.857 151.257 185.13 152.015 185.117 152.809C185.117 152.809 177.691 154.685 173.381 153.083C173.381 153.083 172.822 152.039 173.22 151.021Z" fill="#233862"/>
<path d="M175.728 154.002C175.107 154.002 174.61 153.43 174.61 152.735C174.61 152.04 175.107 151.468 175.728 151.468C176.349 151.468 176.846 152.04 176.846 152.735C176.846 153.43 176.337 154.002 175.728 154.002ZM175.728 151.828C175.318 151.828 174.983 152.226 174.983 152.723C174.983 153.219 175.318 153.617 175.728 153.617C176.138 153.617 176.473 153.219 176.473 152.723C176.473 152.226 176.138 151.828 175.728 151.828Z" fill="white"/>
<path d="M181.093 156.299L169.928 156.411L164.427 143.495L175.592 143.383L181.093 156.299Z" fill="#B5453C"/>
<path d="M179.628 150.462L178.809 149.456C178.809 149.456 178.25 148.959 177.853 148.872C177.455 148.785 176.598 148.301 176.524 148.438C176.437 148.574 177.182 149.555 177.182 149.555H177.219C176.375 150.189 174.251 149.63 173.99 149.891C173.667 150.201 174.425 150.884 174.835 151.257C175.244 151.629 176.399 152.275 177.306 151.99C177.964 151.778 179.008 151.58 179.008 151.58L179.628 150.462Z" fill="#FFB27D"/>
<path d="M165.272 145.768C165.272 145.768 165.979 144.973 166.414 145.358C166.861 145.743 166.302 147.619 165.868 147.432C165.433 147.246 165.023 146.004 165.272 145.768Z" fill="#FFB27D"/>
<path d="M184.074 134.255C184.074 134.255 187.266 134.603 189.564 138.776C191.377 142.067 194.469 148.127 193.302 149.829C192.793 150.586 187.875 153.257 178.411 151.729C178.411 151.729 178.56 150.537 179.33 149.978C179.33 149.978 187.303 147.419 187.291 146.91C187.266 145.942 186.21 145.11 181.764 140.663C180.535 139.446 184.074 134.255 184.074 134.255Z" fill="#F99746"/>
<path d="M181.603 134.417C181.715 134.268 181.566 133.796 181.392 132.926C181.231 132.132 180.957 130.914 180.97 129.536L180.734 129.573L176.772 130.244C176.772 130.244 176.859 131.299 176.859 132.305C176.859 132.318 176.859 132.318 176.859 132.33C176.859 133.2 176.623 134.504 176.921 134.677C178.436 135.547 181.181 134.988 181.603 134.417Z" fill="#FFB27D"/>
<path d="M176.783 130.244C176.783 130.244 176.858 131.734 176.87 132.74C179.093 132.69 180.273 130.529 180.745 129.585L176.783 130.244Z" fill="#E8945B"/>
<path d="M176.535 132.02C176.535 132.02 181.726 131.275 181.217 128.058C180.708 124.841 181.031 122.556 177.69 122.892C174.349 123.227 173.902 124.556 173.815 125.673C173.728 126.804 175.181 132.131 176.535 132.02Z" fill="#FFB27D"/>
<path d="M175.329 123.19C175.329 123.19 177.353 126.754 179.614 126.965C181.874 127.176 182.731 126.443 182.731 126.443C182.731 126.443 180.856 125.388 180.135 123.128C180.135 123.115 176.112 121.215 175.329 123.19Z" fill="#163560"/>
<path d="M175.73 123.438C175.73 123.438 174.737 123.997 174.426 124.829C174.128 125.649 173.917 126.692 174.203 127.909C174.203 127.909 172.725 125.512 173.693 123.86C174.724 122.109 175.73 123.438 175.73 123.438Z" fill="#163560"/>
<path d="M290.176 210H2.24883C2.05012 210 1.88867 209.838 1.88867 209.64V209.429C1.88867 209.23 2.05012 209.068 2.24883 209.068H290.163C290.362 209.068 290.523 209.23 290.523 209.429V209.64C290.536 209.838 290.374 210 290.176 210Z" fill="#233862"/>
</svg>
