<svg width="58" height="58" viewBox="0 0 58 58" fill="none" xmlns="http://www.w3.org/2000/svg">
    <path d="M51.8311 52.1505C53.6751 52.1703 55.2811 50.8617 55.638 49.0574C56.2725 45.8651 57.0854 41.3841 57.1052 36.3479C57.1251 33.2746 56.4311 29.3686 55.4794 26.4341C54.0915 22.1513 51.0975 18.3841 46.7751 17.1349C41.144 15.5289 39.1216 16.1436 35.1165 18.2453C30.7742 20.5255 29.6044 24.7884 25.0837 26.6918C20.7018 28.5358 15.4078 27.9013 11.4225 30.4789C7.913 32.7393 6.188 37.1013 6.04921 41.2849C5.9699 43.9418 6.20783 45.8453 6.68369 47.8875C7.21904 50.1677 9.28111 52.1306 11.6406 52.1505H51.8311Z" fill="#005DE8" />
    <g opacity="0.4">
        <g opacity="0.4">
            <path opacity="0.4" d="M51.8311 52.1505C53.6751 52.1703 55.2811 50.8617 55.638 49.0574C56.2725 45.8651 57.0854 41.3841 57.1052 36.3479C57.1251 33.2746 56.4311 29.3686 55.4794 26.4341C54.0915 22.1513 51.0975 18.3841 46.7751 17.1349C41.144 15.5289 39.1216 16.1436 35.1165 18.2453C30.7742 20.5255 29.6044 24.7884 25.0837 26.6918C20.7018 28.5358 15.4078 27.9013 11.4225 30.4789C7.913 32.7393 6.188 37.1013 6.04921 41.2849C5.9699 43.9418 6.20783 45.8453 6.68369 47.8875C7.21904 50.1677 9.28111 52.1306 11.6406 52.1505H51.8311Z" fill="black" />
        </g>
    </g>
    <path d="M48.9567 17.9082C48.9567 17.9082 48.9765 17.9281 48.9963 17.9875C49.0161 18.047 49.0558 18.1263 49.1153 18.2255C49.2144 18.4436 49.3532 18.7608 49.5515 19.1574C49.6506 19.3556 49.7498 19.5738 49.8687 19.8315C49.9877 20.0694 50.067 20.347 50.186 20.6444C50.3049 20.9419 50.4239 21.2591 50.5429 21.5763C50.6817 21.9134 50.8006 22.2703 50.9196 22.647C51.0386 23.0237 51.1575 23.4203 51.2963 23.8367C51.3756 24.035 51.4153 24.2531 51.4748 24.4712C51.5342 24.6893 51.5937 24.9074 51.6532 25.1453C51.7127 25.3634 51.7722 25.6013 51.8317 25.8393C51.8713 25.9582 51.8911 26.0772 51.9308 26.1962C51.9506 26.3151 51.9705 26.4341 52.0101 26.5531C52.1092 27.0488 52.2084 27.5444 52.3075 28.06C52.6644 30.122 52.9222 32.422 53.0015 34.841C53.061 37.26 52.942 39.56 52.7239 41.6617C52.6049 42.6927 52.5058 43.6841 52.3472 44.616C52.2679 45.072 52.2084 45.5281 52.1291 45.9444C52.0498 46.3608 51.9705 46.7772 51.8911 47.1738C51.7523 47.947 51.5739 48.641 51.4351 49.2556C51.3558 49.5531 51.2963 49.8505 51.2368 50.1082C51.1773 50.366 51.098 50.6039 51.0386 50.822C50.9196 51.2384 50.8403 51.5755 50.7808 51.8134C50.7411 51.9125 50.7213 52.0117 50.7015 52.0712C50.6817 52.1306 50.6817 52.1505 50.6817 52.1505C50.6817 52.1505 50.6817 52.1108 50.7015 52.0712C50.7213 52.0117 50.7411 51.9125 50.761 51.8134C50.8204 51.5755 50.8998 51.2582 50.9989 50.822C51.0584 50.6039 51.1179 50.366 51.1773 50.1082C51.2368 49.8505 51.2963 49.5531 51.3756 49.2556C51.5144 48.641 51.673 47.947 51.8118 47.1738C51.8911 46.7772 51.9704 46.3806 52.0498 45.9444C52.1291 45.5281 52.1886 45.072 52.248 44.616C52.4067 43.7039 52.5058 42.7125 52.6248 41.6617C52.823 39.5798 52.942 37.2798 52.8825 34.8608C52.8032 32.4419 52.5455 30.1617 52.2084 28.0996C52.1092 27.5841 52.0101 27.0884 51.911 26.5927C51.8911 26.4737 51.8713 26.3548 51.8317 26.2358C51.792 26.1169 51.7722 25.9979 51.7523 25.8789C51.6929 25.641 51.6334 25.4229 51.5739 25.185C51.5144 24.9669 51.4549 24.7289 51.4153 24.5108C51.3558 24.2927 51.3161 24.0746 51.2368 23.8763C51.1179 23.46 50.9791 23.0634 50.8601 22.6867C50.7411 22.31 50.642 21.9531 50.5032 21.616C50.3842 21.2789 50.2653 20.9617 50.1463 20.6643C50.0273 20.3669 49.948 20.0893 49.8291 19.8513C49.7299 19.6134 49.6308 19.3755 49.5317 19.1772C49.3532 18.7806 49.2144 18.4634 49.1153 18.2453C49.0756 18.1462 49.036 18.0669 49.0161 18.0074C48.9567 17.9479 48.9368 17.9082 48.9567 17.9082Z" fill="#263238" />
    <path d="M11.9782 52.1307L8.23074 57.9996L0.894531 53.36C1.37039 52.6858 6.06953 53.6772 6.06953 53.6772L8.31005 49.8108L11.9782 52.1307Z" fill="#455A64" />
    <g opacity="0.6">
        <g opacity="0.6">
            <g opacity="0.6">
                <path opacity="0.6" d="M8.52662 54.8074C8.64558 54.9264 8.64558 55.1643 8.52662 55.2833C8.40765 55.4022 8.16972 55.4022 8.05076 55.2833C7.93179 55.1643 7.93179 54.8867 8.07058 54.7876C8.20938 54.6884 8.46714 54.6884 8.56627 54.8471" fill="white" />
            </g>
        </g>
    </g>
    <g opacity="0.6">
        <g opacity="0.6">
            <path opacity="0.6" d="M8.23044 57.9996L8.58734 57.3849L1.42958 53.1815C1.42958 53.1815 1.0132 53.122 0.914062 53.3797L8.23044 57.9996Z" fill="white" />
        </g>
    </g>
    <path d="M5.97044 53.5781C5.95061 53.6177 6.10924 53.7367 6.2282 53.9746C6.34717 54.1927 6.32734 54.4108 6.36699 54.4108C6.40665 54.4307 6.48596 54.1729 6.34716 53.8953C6.2282 53.6376 5.99027 53.5384 5.97044 53.5781Z" fill="#263238" />
    <path d="M4.99919 53.3996C4.95954 53.4195 5.0785 53.5781 5.11816 53.816C5.15781 54.0341 5.0785 54.2324 5.11816 54.2522C5.15781 54.272 5.2966 54.0936 5.27678 53.7962C5.23712 53.5186 5.01902 53.3798 4.99919 53.3996Z" fill="#263238" />
    <path d="M3.98835 54.0539C4.00817 54.0738 4.18662 53.935 4.20645 53.6772C4.24611 53.4195 4.12714 53.241 4.08748 53.2608C4.04783 53.2807 4.08748 53.4591 4.06766 53.6574C4.028 53.8557 3.94869 54.0143 3.98835 54.0539Z" fill="#263238" />
    <path d="M6.58398 52.7453C6.58398 52.7849 6.78226 52.8444 6.96071 52.9832C7.15898 53.122 7.27795 53.2806 7.3176 53.2608C7.35726 53.241 7.27795 53.0229 7.05985 52.8642C6.82191 52.7056 6.58398 52.7056 6.58398 52.7453Z" fill="#263238" />
    <path d="M7.29874 51.9919C7.29874 52.0117 7.41771 52.1108 7.67546 52.2298C7.79443 52.2893 7.95305 52.3289 8.1315 52.3488C8.21081 52.3686 8.30995 52.3686 8.40908 52.3686C8.44874 52.3686 8.50822 52.3686 8.56771 52.3488C8.62719 52.3289 8.7065 52.2496 8.7065 52.1703C8.7065 52.091 8.64702 52.0315 8.60736 51.9919C8.54788 51.9522 8.50822 51.9324 8.44874 51.9324C8.3496 51.8927 8.27029 51.8729 8.17115 51.8729C7.99271 51.8531 7.83408 51.8531 7.69529 51.8729C7.4177 51.9324 7.27891 52.0117 7.29874 52.0315C7.29874 52.0514 7.45736 51.9919 7.71512 51.972C7.83408 51.9522 7.9927 51.972 8.15133 51.9919C8.23064 52.0117 8.30995 52.0315 8.40908 52.0513C8.50822 52.0712 8.56771 52.1307 8.56771 52.1703C8.56771 52.1901 8.5677 52.1901 8.52805 52.21C8.48839 52.2298 8.44874 52.2298 8.40908 52.2298C8.30995 52.2298 8.23064 52.2298 8.15133 52.21C7.9927 52.1901 7.83408 52.1505 7.71512 52.1307C7.45736 52.0514 7.31857 51.972 7.29874 51.9919Z" fill="#263238" />
    <path d="M7.3188 52.0712C7.3188 52.091 7.47741 51.9919 7.63604 51.7738C7.71535 51.6548 7.79466 51.516 7.83431 51.3376C7.85414 51.2583 7.87397 51.1591 7.87397 51.06C7.87397 50.9608 7.8938 50.8221 7.755 50.7229C7.67569 50.6833 7.59638 50.6833 7.5369 50.7229C7.47741 50.7626 7.45759 50.8022 7.41793 50.8419C7.35845 50.9212 7.29897 51.0005 7.25931 51.0798C7.18 51.2583 7.16018 51.4169 7.18 51.5557C7.19983 51.8333 7.31879 51.9721 7.33862 51.9721C7.35845 51.9522 7.27914 51.8134 7.27914 51.5557C7.27914 51.4367 7.29897 51.2781 7.37828 51.1393C7.41793 51.06 7.45759 51.0005 7.51707 50.941C7.57655 50.8617 7.65587 50.8221 7.67569 50.8617C7.71535 50.8815 7.73517 50.9807 7.73517 51.06C7.73517 51.1591 7.71535 51.2384 7.69552 51.3177C7.65586 51.4764 7.59638 51.6152 7.5369 51.7341C7.43776 51.9324 7.29897 52.0514 7.3188 52.0712Z" fill="#263238" />
    <path d="M17.2326 33.8298L14.9921 40.4324L6.76367 37.6763C7.08091 36.9031 11.8594 36.7643 11.8594 36.7643L13.1283 32.4815L17.2326 33.8298Z" fill="#455A64" />
    <g opacity="0.6">
        <g opacity="0.6">
            <g opacity="0.6">
                <path opacity="0.6" d="M14.517 37.26C14.6558 37.3591 14.7153 37.5772 14.6161 37.716C14.517 37.8548 14.2989 37.9143 14.1601 37.8151C14.0213 37.716 13.942 37.4582 14.061 37.3194C14.1601 37.1806 14.4377 37.141 14.5567 37.26" fill="white" />
            </g>
        </g>
    </g>
    <g opacity="0.6">
        <g opacity="0.6">
            <path opacity="0.6" d="M14.9908 40.4324L15.1891 39.7582L7.23826 37.3789C7.23826 37.3789 6.82188 37.4186 6.78223 37.6961L14.9908 40.4324Z" fill="white" />
        </g>
    </g>
    <path d="M11.7397 36.6651C11.7198 36.7048 11.9181 36.7841 12.0767 36.9824C12.2353 37.1806 12.275 37.3789 12.3147 37.3789C12.3543 37.3789 12.3741 37.1212 12.1759 36.8832C11.9974 36.6651 11.7397 36.6255 11.7397 36.6651Z" fill="#263238" />
    <path d="M10.749 36.7444C10.7292 36.7841 10.8679 36.9031 10.9671 37.1212C11.0464 37.3393 11.0266 37.5375 11.0662 37.5375C11.1059 37.5574 11.205 37.3393 11.1059 37.0617C11.0067 36.8039 10.7688 36.7048 10.749 36.7444Z" fill="#263238" />
    <path d="M9.91659 37.6168C9.95624 37.6367 10.0752 37.4582 10.0356 37.2005C10.0157 36.9427 9.8571 36.8039 9.81745 36.8237C9.77779 36.8436 9.85711 37.0022 9.89676 37.2203C9.93642 37.4186 9.87693 37.597 9.91659 37.6168Z" fill="#263238" />
    <path d="M12.1369 35.7332C12.1369 35.7729 12.3352 35.7729 12.5731 35.872C12.7912 35.9513 12.9498 36.0901 12.9895 36.0703C13.0291 36.0505 12.8903 35.8522 12.6326 35.7332C12.355 35.6341 12.1171 35.6936 12.1369 35.7332Z" fill="#263238" />
    <path d="M12.6523 34.8212C12.6523 34.841 12.7911 34.9203 13.0687 34.96C13.2075 34.9798 13.3661 34.9798 13.5446 34.9798C13.6437 34.9798 13.723 34.96 13.8222 34.9401C13.8618 34.9203 13.9213 34.9203 13.9808 34.8807C14.0403 34.8608 14.0998 34.7617 14.0799 34.6824C14.0601 34.6031 14.0006 34.5436 13.9411 34.5238C13.8817 34.5039 13.8222 34.5039 13.7825 34.4841C13.6834 34.4841 13.5842 34.4841 13.5049 34.4841C13.3265 34.5039 13.1679 34.5436 13.0489 34.6031C12.7911 34.722 12.692 34.841 12.692 34.8608C12.7118 34.8807 12.8506 34.7815 13.0886 34.7022C13.2075 34.6625 13.3661 34.6229 13.5248 34.6229C13.6041 34.6229 13.7032 34.6229 13.7825 34.6229C13.8817 34.6229 13.961 34.6625 13.961 34.7022C13.961 34.722 13.961 34.722 13.9411 34.7419C13.9213 34.7617 13.8618 34.7617 13.8222 34.7815C13.7429 34.8013 13.6437 34.8212 13.5644 34.841C13.4058 34.8608 13.2472 34.8608 13.1084 34.8608C12.8308 34.841 12.6722 34.8013 12.6523 34.8212Z" fill="#263238" />
    <path d="M12.6921 34.9005C12.7119 34.9203 12.8309 34.8013 12.93 34.5436C12.9895 34.4246 13.0093 34.266 13.0291 34.0677C13.0291 33.9686 13.0291 33.8893 13.0093 33.7901C12.9895 33.691 12.9697 33.572 12.811 33.4927C12.7317 33.4531 12.6326 33.5125 12.5929 33.5522C12.5533 33.5919 12.5334 33.6513 12.4938 33.691C12.4541 33.7901 12.4145 33.8694 12.3947 33.9686C12.355 34.147 12.3748 34.3255 12.4343 34.4444C12.5334 34.7022 12.6722 34.8212 12.6921 34.8013C12.7119 34.7815 12.5929 34.6625 12.5533 34.4246C12.5334 34.3057 12.5136 34.147 12.5533 33.9884C12.5731 33.9091 12.5929 33.8298 12.6326 33.7505C12.6722 33.6712 12.7317 33.6117 12.7516 33.6315C12.7912 33.6513 12.8309 33.7306 12.8507 33.81C12.8705 33.8893 12.8705 33.9884 12.8705 34.0677C12.8705 34.2263 12.8507 34.385 12.811 34.5039C12.7714 34.7419 12.6722 34.8806 12.6921 34.9005Z" fill="#263238" />
    <path d="M30.8534 31.9461C30.8534 31.9461 24.6672 22.0125 22.962 19.2565C20.9991 16.0642 16.9543 16.4806 16.0025 19.3556C16.2206 18.7013 15.2491 21.5565 11.9775 32.1841L17.4698 33.7504L20.1465 28.278L22.4068 34.7617L30.8534 31.9461Z" fill="#263238" />
    <path d="M32.0237 31.4306H20.6427C18.8384 31.4306 17.1332 32.2039 15.9634 33.5323C15.5668 33.9884 15.2892 34.5237 15.1108 35.0987L6.7832 50.6435L12.097 53.578L22.0306 39.3815L27.5823 39.441L39.9548 31.728L32.0237 31.4306Z" fill="#263238" />
    <path d="M20.7214 36.3478C20.7412 36.3478 20.8602 36.4866 21.0188 36.7444C21.1774 37.0021 21.3757 37.359 21.5541 37.7953C21.7326 38.2116 21.8317 38.628 21.8912 38.9254C21.9507 39.2228 21.9507 39.4013 21.9507 39.4013C21.911 39.4013 21.8119 38.6677 21.4748 37.8349C21.1179 36.9823 20.7016 36.3677 20.7214 36.3478Z" fill="#455A64" />
    <path d="M8.96412 22.3297L13.6038 31.4306H28.2167L27.6219 30.241L23.3986 30.122L19.9486 22.4487C19.7305 21.9729 19.2546 21.6556 18.7391 21.6556H9.40033C9.04343 21.6556 8.82533 22.0323 8.96412 22.3297Z" fill="#E0E0E0" />
    <path d="M16.4387 26.3547C16.4387 26.6918 16.1809 26.9496 15.8439 26.9496C15.5068 26.9496 15.249 26.6918 15.249 26.3547C15.249 26.0177 15.5068 25.7599 15.8439 25.7599C16.1809 25.7599 16.4387 26.0375 16.4387 26.3547Z" fill="#263238" />
    <path d="M30.0401 20.8824L27.7797 28.5953L19.4521 29.4876V30.9746L31.6858 31.1332L33.3711 21.1005L30.0401 20.8824Z" fill="#FFBE9D" />
    <path d="M46.0426 15.8461C45.5469 13.6453 42.2754 12.8125 40.7883 12.8125C38.7262 12.8125 38.9047 12.6737 36.8823 13.0504H36.6245C30.4581 12.7927 29.7443 21.2789 29.7443 21.2789L32.5599 21.5168L31.8262 27.3461L29.665 31.4504L41.5021 31.4306L42.1564 21.7944L47.1133 21.6556C47.1331 21.6556 46.5383 18.0668 46.0426 15.8461Z" fill="#005DE8" />
    <path d="M32.9156 17.6703C32.9552 17.6703 32.7371 19.7324 32.4596 22.2703C32.1621 24.8082 31.9044 26.8505 31.8846 26.8505C31.8449 26.8505 32.063 24.7884 32.3406 22.2505C32.6182 19.7125 32.8759 17.6703 32.9156 17.6703Z" fill="#263238" />
    <g opacity="0.2">
        <g opacity="0.2">
            <g opacity="0.2">
                <path opacity="0.2" d="M41.9568 17.6703C41.4611 20.0893 40.787 22.5677 40.2913 24.9867C40.1921 25.5022 40.0732 26.0375 39.7559 26.4539C39.5577 26.7117 39.2999 26.9298 39.0421 27.1082C38.0508 27.8617 36.9999 28.5556 35.8301 28.972C37.5154 28.8332 39.2008 28.5358 40.8266 28.0996C41.1042 28.0203 41.4016 27.941 41.5801 27.703C41.7387 27.5048 41.7784 27.247 41.7982 26.9893C42.1551 23.8962 42.0559 20.7832 41.9568 17.6703Z" fill="black" />
            </g>
        </g>
    </g>
    <path d="M25.5987 28.4168L29.2668 27.9806L31.8444 29.6858L41.7383 27.3065L42.0357 21.7944L46.4771 21.6754L46.378 28.1591C46.3383 30.241 44.5935 31.8866 42.5116 31.847L28.0176 31.4504L27.403 30.2211L24.29 30.122L25.5987 28.4168Z" fill="#FFBE9D" />
    <path d="M41.737 27.2866C41.737 27.2866 41.6776 27.3065 41.5586 27.3461C41.4198 27.3858 41.2414 27.4254 41.0232 27.4849C40.5474 27.6039 39.8732 27.7823 39.0405 27.9806C37.3551 28.397 35.0353 28.9522 32.4776 29.5668C32.2793 29.6065 32.0612 29.666 31.8629 29.7056H31.8431L31.8232 29.6858C30.9112 29.091 30.0388 28.516 29.2457 27.9806H29.2853C27.8379 28.1392 26.5689 28.2979 25.6172 28.397L25.637 28.3772C25.2207 28.8927 24.9034 29.3091 24.6655 29.6065C24.5465 29.7453 24.4672 29.8444 24.4077 29.9237C24.3482 30.003 24.3086 30.0427 24.3086 30.0229C24.3086 30.0229 24.3284 29.9832 24.3879 29.9039C24.4474 29.8246 24.5267 29.7056 24.6258 29.5668C24.8439 29.2694 25.1612 28.853 25.5776 28.3177V28.2979H25.5974C26.5689 28.1789 27.8181 28.0203 29.2655 27.8418H29.2853L29.3051 27.8616C30.0983 28.3772 30.9707 28.9522 31.9026 29.547H31.8629C32.0612 29.5073 32.2595 29.4479 32.4776 29.4082C35.0353 28.7935 37.3551 28.2582 39.0405 27.8418C39.8732 27.6435 40.5474 27.4849 41.0431 27.3858C41.281 27.3263 41.4595 27.2866 41.5784 27.2668C41.6776 27.3065 41.737 27.2866 41.737 27.2866Z" fill="#EB996E" />
    <path d="M27.7199 29.4677C27.7199 29.5073 27.0855 29.5272 26.2923 29.5272C26.213 29.5272 26.1139 29.5272 26.0346 29.5272L26.0742 29.5073C25.5587 29.9237 25.1622 30.241 25.1423 30.2211C25.1225 30.2013 25.4992 29.8642 25.9949 29.428L26.0148 29.4082H26.0346C26.1139 29.4082 26.213 29.4082 26.2923 29.4082C27.0855 29.4082 27.7199 29.428 27.7199 29.4677Z" fill="#EB996E" />
    <path d="M43.4825 28.2185C43.4429 28.2384 43.2644 27.7823 42.7687 27.4651C42.273 27.1478 41.7773 27.1677 41.7773 27.1479C41.7773 27.128 41.8963 27.1082 42.0946 27.128C42.2929 27.1479 42.5704 27.2073 42.8282 27.3858C43.086 27.5444 43.2644 27.7625 43.3636 27.941C43.4627 28.0996 43.4825 28.2185 43.4825 28.2185Z" fill="#EB996E" />
    <path d="M47.1322 21.6953C46.8546 21.7151 46.4977 21.7151 46.0417 21.735C45.1296 21.7548 43.8606 21.7944 42.4727 21.8143C42.3141 21.8143 42.1753 21.8143 42.0167 21.8143H41.9572V21.7548C41.8977 20.466 41.9374 19.316 41.9572 18.4832C41.977 18.0669 41.977 17.7298 41.9969 17.5117C42.0167 17.2738 42.0167 17.1548 42.0365 17.1548C42.0365 17.1548 42.0563 17.2738 42.0365 17.5117C42.0365 17.7694 42.0365 18.0867 42.0365 18.4832C42.0365 19.316 42.0167 20.466 42.0762 21.7548L42.0167 21.6953C42.1555 21.6953 42.3141 21.6953 42.4727 21.6953C43.8606 21.6755 45.1296 21.6556 46.0417 21.6358C46.4779 21.6358 46.8546 21.6358 47.1322 21.6358C47.39 21.6556 46.7356 21.6755 47.1322 21.6953Z" fill="#263238" />
    <path d="M39.4989 21.7349C39.4989 21.7349 39.4592 21.8341 39.3601 22.0125C39.3204 22.1116 39.261 22.2108 39.1816 22.3298C39.1023 22.4487 39.023 22.5875 38.9041 22.7461C38.7058 23.0435 38.4282 23.4004 38.111 23.7573C37.7937 24.1142 37.417 24.491 36.9808 24.8479C36.5446 25.2048 36.1084 25.5022 35.692 25.7599C35.2756 26.0177 34.8791 26.216 34.542 26.3548C34.3834 26.4341 34.2247 26.4935 34.0859 26.553C33.9472 26.6125 33.8282 26.6522 33.7291 26.672C33.5308 26.7315 33.4316 26.7711 33.4316 26.7513C33.4316 26.7513 33.5308 26.6918 33.7291 26.6323C33.8282 26.5927 33.9472 26.553 34.0661 26.4935C34.2049 26.4341 34.3437 26.3746 34.5222 26.2953C34.8592 26.1366 35.236 25.9384 35.6523 25.6806C36.0489 25.4229 36.4851 25.1254 36.9213 24.7685C37.3377 24.4117 37.7144 24.0349 38.0515 23.678C38.3687 23.3211 38.6463 22.9841 38.8644 22.6867C38.9834 22.5479 39.0627 22.4091 39.142 22.2901C39.2213 22.1711 39.2808 22.072 39.3403 21.9729C39.4394 21.8142 39.4989 21.7349 39.4989 21.7349Z" fill="#263238" />
    <path d="M45.843 15.4298C45.843 15.4298 45.7836 15.4298 45.7042 15.4298C45.6051 15.4298 45.4663 15.4298 45.2879 15.41C44.9111 15.3901 44.3956 15.3703 43.7611 15.3505C42.4723 15.3108 40.7077 15.2712 38.7448 15.291C36.7818 15.3108 35.0172 15.41 33.7284 15.4893C33.0939 15.5289 32.5784 15.5686 32.2017 15.5884C32.0232 15.6082 31.8844 15.6082 31.7853 15.6082C31.6861 15.6082 31.6465 15.6082 31.6465 15.6082C31.6465 15.6082 31.6861 15.5884 31.7853 15.5884C31.8844 15.5686 32.0232 15.5686 32.2017 15.5488C32.5586 15.5091 33.0741 15.4695 33.7284 15.41C35.0172 15.3108 36.7818 15.2117 38.7448 15.1919C40.7077 15.172 42.4922 15.2117 43.7611 15.2712C44.3956 15.3108 44.931 15.3307 45.2879 15.3703C45.4663 15.3901 45.6051 15.3901 45.7042 15.41C45.7836 15.41 45.843 15.4298 45.843 15.4298Z" fill="#FAFAFA" />
    <path d="M32.6573 19.4548C32.6573 19.4746 32.0823 19.5143 31.3487 19.5143C30.6349 19.5143 30.04 19.4945 30.04 19.4548C30.04 19.4151 30.615 19.3953 31.3487 19.3953C32.0823 19.4152 32.6573 19.435 32.6573 19.4548Z" fill="#FAFAFA" />
    <path d="M41.9372 19.9108C41.9372 19.9108 41.8976 19.9307 41.8381 19.9307C41.7588 19.9505 41.6795 19.9505 41.5803 19.9703C41.3424 20.01 41.0053 20.0496 40.5889 20.0893C39.7562 20.1686 38.6062 20.2677 37.3174 20.3272C36.0484 20.3669 34.8786 20.3669 34.0458 20.347C33.6295 20.3272 33.2924 20.3272 33.0545 20.3074C32.9553 20.3074 32.8562 20.2876 32.7769 20.2876C32.7174 20.2876 32.6777 20.2876 32.6777 20.2677C32.6777 20.2677 32.7174 20.2677 32.7769 20.2677C32.8562 20.2677 32.9355 20.2677 33.0545 20.2677C33.3122 20.2677 33.6295 20.2677 34.0458 20.2677C34.8786 20.2677 36.0286 20.2677 37.3174 20.2082C38.5864 20.1488 39.7364 20.0694 40.5691 20.01C40.9657 19.9703 41.3027 19.9505 41.5605 19.9307C41.6596 19.9307 41.7588 19.9108 41.8381 19.9108C41.8976 19.9108 41.9372 19.9108 41.9372 19.9108Z" fill="#FAFAFA" />
    <path d="M46.6971 19.0979C46.6971 19.1177 45.6462 19.2367 44.3376 19.3556C43.029 19.4746 41.9781 19.5341 41.9583 19.5143C41.9385 19.4944 43.0091 19.3755 44.3178 19.2565C45.6462 19.1375 46.6971 19.078 46.6971 19.0979Z" fill="#FAFAFA" />
    <path d="M36.4247 25.1255C36.4247 25.1453 36.1868 25.1651 35.8101 25.1849C35.4334 25.2048 34.898 25.2048 34.3032 25.1849C33.7084 25.1651 33.173 25.1453 32.7963 25.1056C32.4196 25.066 32.1816 25.0462 32.1816 25.0263C32.1816 25.0065 32.4196 25.0263 32.8161 25.0263C33.1928 25.0462 33.7282 25.066 34.323 25.0858C34.9178 25.1056 35.4532 25.1056 35.8299 25.1056C36.1868 25.1056 36.4247 25.1255 36.4247 25.1255Z" fill="#FAFAFA" />
    <path d="M41.8577 25.3039C41.8577 25.3039 41.7784 25.3238 41.6396 25.3436C41.5008 25.3634 41.2827 25.4031 41.025 25.4229C40.5094 25.4824 39.7758 25.5617 38.9827 25.5815C38.1698 25.6212 37.456 25.6014 36.9207 25.5815C36.6629 25.5617 36.4448 25.5617 36.306 25.5419C36.1672 25.5221 36.0879 25.5221 36.0879 25.5022C36.0879 25.5022 36.1672 25.4824 36.3258 25.5022C36.5043 25.5022 36.7025 25.5022 36.9405 25.5022C37.456 25.5022 38.1896 25.5022 38.9827 25.4824C39.7758 25.4427 40.5094 25.4031 41.025 25.3436C41.2629 25.3238 41.481 25.3039 41.6396 25.2841C41.7784 25.3039 41.8577 25.3039 41.8577 25.3039Z" fill="#FAFAFA" />
    <path d="M33.2729 29.091C33.2729 29.1109 32.797 29.0514 32.2617 28.8333C31.7263 28.6152 31.3496 28.3376 31.3496 28.3177C31.3694 28.2979 31.766 28.5358 32.3013 28.754C32.8168 28.9721 33.2729 29.0712 33.2729 29.091Z" fill="#FAFAFA" />
    <path d="M38.2098 2.06602H38.0314C36.1279 2.06602 34.5615 3.49361 34.4227 5.33758C34.2839 7.04275 34.1452 8.9462 34.165 9.85827C34.1848 11.7617 36.1477 12.0591 36.1477 12.0591L36.0684 13.7445C36.0288 15.0134 37.0003 16.0643 38.2495 16.1436C39.5383 16.2229 40.6486 15.2315 40.7081 13.9428L41.1046 5.91258C41.2831 3.92982 40.2521 2.18499 38.2098 2.06602Z" fill="#FFBE9D" />
    <path d="M36.1279 12.0393C36.1279 12.0393 37.3771 12.1186 38.6857 11.3057C38.6857 11.3057 38.0909 12.6738 36.1478 12.5151L36.1279 12.0393Z" fill="#EB996E" />
    <path d="M35.0957 6.52719C35.0957 6.66598 35.2147 6.78495 35.3733 6.80478C35.5319 6.80478 35.6509 6.70564 35.6509 6.56684C35.6509 6.42805 35.5319 6.30908 35.3733 6.28926C35.2345 6.26943 35.1155 6.36857 35.0957 6.52719Z" fill="#263238" />
    <path d="M34.8387 6.26944C34.8784 6.30909 35.0767 6.15047 35.3939 6.15047C35.6913 6.15047 35.9094 6.28926 35.9491 6.26944C35.9689 6.24961 35.9292 6.19013 35.8301 6.13064C35.731 6.07116 35.5723 5.99185 35.3939 5.99185C35.2155 5.99185 35.0568 6.05133 34.9577 6.13064C34.8387 6.19013 34.8189 6.24961 34.8387 6.26944Z" fill="#263238" />
    <path d="M37.8916 6.60653C37.8916 6.74532 38.0106 6.86429 38.1692 6.88411C38.3278 6.88411 38.4468 6.78498 38.4468 6.64618C38.4468 6.50739 38.3278 6.38842 38.1692 6.36859C38.0304 6.34877 37.9114 6.46773 37.8916 6.60653Z" fill="#263238" />
    <path d="M37.6339 6.3091C37.6735 6.34875 37.8718 6.19013 38.189 6.19013C38.4864 6.19013 38.7045 6.32893 38.7442 6.3091C38.764 6.28927 38.7244 6.22978 38.6252 6.1703C38.5261 6.11082 38.3675 6.03151 38.189 6.03151C38.0106 6.03151 37.852 6.09099 37.7528 6.1703C37.6537 6.22978 37.614 6.3091 37.6339 6.3091Z" fill="#263238" />
    <path d="M36.7017 8.49012C36.7017 8.47029 36.5232 8.45046 36.206 8.41081C36.1267 8.41081 36.0473 8.39098 36.0473 8.3315C36.0275 8.27202 36.0672 8.19271 36.1068 8.11339C36.1861 7.93495 36.2456 7.73667 36.3249 7.5384C36.6422 6.72547 36.8603 6.07115 36.8206 6.05133C36.781 6.0315 36.5034 6.68581 36.1861 7.49874C36.1068 7.69702 36.0473 7.89529 35.968 8.07374C35.9482 8.15305 35.8887 8.25219 35.9284 8.37115C35.9482 8.43064 36.0077 8.47029 36.0473 8.47029C36.087 8.49012 36.1465 8.49012 36.1861 8.49012C36.5034 8.49012 36.7017 8.50995 36.7017 8.49012Z" fill="#263238" />
    <path d="M37.5748 8.6884C37.5351 8.6884 37.5351 9.00564 37.2575 9.22374C36.9799 9.44185 36.623 9.42202 36.623 9.46167C36.623 9.4815 36.7024 9.52116 36.8412 9.52116C36.9799 9.52116 37.198 9.4815 37.3567 9.34271C37.5351 9.20392 37.5946 9.02547 37.6144 8.88668C37.6343 8.76771 37.5946 8.6884 37.5748 8.6884Z" fill="#263238" />
    <path d="M37.6934 5.17893C37.733 5.25824 38.0304 5.21858 38.3675 5.25824C38.7244 5.29789 39.002 5.39703 39.0416 5.31772C39.0615 5.27807 39.0218 5.21858 38.9028 5.13927C38.7839 5.05996 38.6054 4.98065 38.3873 4.96082C38.1692 4.941 37.9908 4.98065 37.852 5.02031C37.7528 5.07979 37.6934 5.13927 37.6934 5.17893Z" fill="#263238" />
    <path d="M34.9374 5.41687C34.9968 5.47635 35.1951 5.41687 35.4529 5.41687C35.7106 5.39704 35.9089 5.45652 35.9684 5.39704C35.9882 5.35738 35.9486 5.2979 35.8693 5.23842C35.7701 5.17894 35.6313 5.11945 35.4529 5.13928C35.2744 5.13928 35.1356 5.19876 35.0563 5.27807C34.9374 5.31773 34.9175 5.39704 34.9374 5.41687Z" fill="#263238" />
    <path d="M40.8273 7.3005C40.867 7.28067 42.1756 6.90394 42.1359 8.21256C42.0963 9.52118 40.7678 9.20394 40.7678 9.16429C40.748 9.14446 40.8273 7.3005 40.8273 7.3005Z" fill="#FFBE9D" />
    <path d="M41.0644 8.68841C41.0644 8.68841 41.0842 8.70824 41.1239 8.72807C41.1636 8.74789 41.223 8.76772 41.3024 8.72807C41.4411 8.68841 41.5799 8.47031 41.5799 8.23238C41.5799 8.11341 41.5601 7.99444 41.5205 7.91513C41.4808 7.816 41.4213 7.75651 41.342 7.73669C41.2627 7.71686 41.223 7.75652 41.2032 7.79617C41.1834 7.83583 41.1834 7.85565 41.1834 7.85565C41.1834 7.85565 41.1636 7.83582 41.1636 7.77634C41.1636 7.75651 41.1834 7.71686 41.223 7.69703C41.2627 7.6772 41.3023 7.65738 41.3618 7.6772C41.461 7.69703 41.5601 7.77634 41.5998 7.89531C41.6592 7.99445 41.6791 8.13324 41.6791 8.2522C41.6592 8.50996 41.5205 8.74789 41.3222 8.80738C41.223 8.8272 41.1437 8.80738 41.1041 8.76772C41.0644 8.72807 41.0446 8.68841 41.0644 8.68841Z" fill="#EB996E" />
    <path d="M39.9544 3.45394L34.3828 3.5729C34.5613 3.19618 34.8587 2.89876 35.1957 2.66083C35.9095 2.12549 36.8018 1.78842 37.7139 1.76859C38.6259 1.74876 40.4699 2.83928 41.1242 3.43411C41.6595 3.9298 41.6397 4.34618 41.6397 4.34618C41.719 5.04014 41.3225 5.85308 41.1638 6.52721C41.0845 6.88411 40.9259 7.9548 40.9259 7.9548C40.6285 7.9548 40.5095 7.71687 40.5492 7.41945L40.6087 6.26945C40.6087 6.26945 39.5578 5.55566 40.0535 4.22722C40.1526 4.12808 40.3113 3.65221 39.9544 3.45394Z" fill="#263238" />
    <path d="M38.7849 7.55824C38.8047 7.55824 38.8245 7.55825 38.8245 7.53842C38.8245 7.51859 38.8245 7.49876 38.8047 7.49876C38.7849 7.49876 38.765 7.49876 38.765 7.51859C38.7452 7.53842 38.765 7.55824 38.7849 7.55824Z" fill="#EB996E" />
    <path d="M38.2097 7.43928C38.2295 7.43928 38.2493 7.41946 38.2493 7.39963C38.2493 7.3798 38.2493 7.35997 38.2295 7.35997C38.2097 7.35997 38.1899 7.3798 38.1899 7.39963C38.17 7.39963 38.1899 7.41945 38.2097 7.43928Z" fill="#EB996E" />
    <path d="M37.8128 7.41945C37.8326 7.41945 37.8524 7.39962 37.8524 7.3798C37.8524 7.35997 37.8525 7.32031 37.8326 7.32031C37.8128 7.32031 37.793 7.34014 37.793 7.35997C37.793 7.39962 37.793 7.41945 37.8128 7.41945Z" fill="#EB996E" />
    <path d="M38.5074 7.91514C38.5273 7.91514 38.5471 7.91514 38.5471 7.89532C38.5471 7.87549 38.5273 7.87549 38.5074 7.87549C38.4876 7.87549 38.4678 7.87549 38.4678 7.89532C38.4678 7.89532 38.4876 7.91514 38.5074 7.91514Z" fill="#EB996E" />
    <path d="M37.9713 7.79619C37.9911 7.79619 38.0109 7.77636 38.0109 7.75653C38.0109 7.7367 37.9911 7.71687 37.9713 7.71687C37.9515 7.71687 37.9316 7.7367 37.9316 7.75653C37.9316 7.77636 37.9515 7.79619 37.9713 7.79619Z" fill="#EB996E" />
    <path d="M35.2356 7.47895C35.2555 7.47895 35.2753 7.47895 35.2753 7.45912C35.2753 7.43929 35.2753 7.41946 35.2555 7.41946C35.2357 7.41946 35.2158 7.41947 35.2158 7.43929C35.2158 7.45912 35.2158 7.47895 35.2356 7.47895Z" fill="#EB996E" />
    <path d="M34.8392 7.43928C34.859 7.43928 34.8788 7.41946 34.8788 7.39963C34.8788 7.3798 34.859 7.35997 34.859 7.35997C34.8392 7.35997 34.8193 7.3798 34.8193 7.39963C34.8193 7.41946 34.8193 7.43928 34.8392 7.43928Z" fill="#EB996E" />
    <path d="M35.5726 7.47895C35.5924 7.47895 35.6122 7.47895 35.6122 7.45912C35.6122 7.43929 35.6122 7.41946 35.5924 7.41946C35.5726 7.41946 35.5527 7.41947 35.5527 7.43929C35.5527 7.45912 35.5726 7.47895 35.5726 7.47895Z" fill="#EB996E" />
    <path d="M35.2952 7.87551C35.315 7.87551 35.3349 7.87551 35.3349 7.85568C35.3349 7.83585 35.3349 7.81602 35.315 7.81602C35.2952 7.81602 35.2754 7.81603 35.2754 7.83585C35.2754 7.83585 35.2754 7.85568 35.2952 7.87551Z" fill="#EB996E" />
    <path d="M34.9586 7.79619C34.9784 7.79619 34.9784 7.77636 34.9784 7.75654C34.9784 7.73671 34.9586 7.73671 34.9388 7.73671C34.9189 7.73671 34.9189 7.75654 34.9189 7.77636C34.9189 7.79619 34.9388 7.81602 34.9586 7.79619Z" fill="#EB996E" />
    <path d="M41.1641 3.5134C41.3029 3.03754 41.1641 2.50219 40.8468 2.12547C40.5296 1.72891 40.0141 1.51081 39.5184 1.53064C39.2606 1.55047 39.0029 1.60995 38.7451 1.59012C38.2692 1.53064 37.8925 1.15391 37.4365 0.975466C36.7425 0.697879 35.8503 0.95564 35.4339 1.55047C35.2555 1.7884 35.1563 2.10564 34.8986 2.26426C34.6805 2.40305 34.383 2.38322 34.1451 2.46253C33.6296 2.62116 33.2925 3.13667 33.3124 3.65219C33.3322 4.16771 33.7089 4.64357 34.2046 4.84184C34.7003 5.04012 35.2753 4.98064 35.7512 4.74271C36.1675 4.5246 36.5443 4.12805 37.0201 4.14788C37.5158 4.16771 37.952 4.62374 38.4477 4.52461C38.7055 4.46512 38.9037 4.28667 39.0822 4.10822C39.2606 3.92978 39.4787 3.75133 39.7365 3.7315C39.9942 3.71167 40.133 4.06857 40.0339 4.3065L41.1641 3.5134Z" fill="#263238" />
    <path d="M34.4824 2.87896C34.4824 2.87896 34.5022 2.87896 34.4824 2.87896C34.5022 2.91862 34.5023 2.91861 34.5221 2.95827C34.5617 2.99792 34.6014 3.05741 34.6807 3.13672C34.76 3.1962 34.879 3.27551 35.0178 3.31517C35.1566 3.35482 35.335 3.37465 35.5135 3.335C35.6919 3.29534 35.8902 3.1962 36.0488 3.03758C36.2074 2.87896 36.2867 2.66086 36.4255 2.46258C36.5048 2.36344 36.5841 2.28413 36.7031 2.22465C36.8221 2.16517 36.941 2.14534 37.0798 2.14534C37.2186 2.14534 37.3376 2.185 37.4566 2.24448C37.5755 2.30396 37.6747 2.4031 37.7342 2.52206C37.7936 2.64103 37.8531 2.77982 37.9324 2.87896C38.0117 2.99793 38.1505 3.07723 38.2893 3.09706C38.4281 3.09706 38.5669 3.05741 38.6859 2.9781C38.8048 2.91862 38.904 2.81948 38.9833 2.74017C39.1617 2.56172 39.3204 2.4031 39.5385 2.36344C39.7566 2.32379 39.9548 2.38327 40.0936 2.48241C40.2523 2.58155 40.3316 2.72034 40.391 2.85913C40.4505 2.99792 40.4902 3.11689 40.51 3.21603C40.5298 3.31517 40.5497 3.39448 40.5497 3.45396C40.5497 3.51344 40.5497 3.53327 40.5695 3.53327C40.5695 3.53327 40.5695 3.53327 40.5695 3.51344C40.5695 3.49361 40.5695 3.47379 40.5695 3.45396C40.5695 3.39448 40.5695 3.31517 40.5497 3.21603C40.5298 3.11689 40.51 2.99792 40.4505 2.85913C40.391 2.72034 40.2919 2.58155 40.1333 2.46258C39.9747 2.36344 39.7764 2.2643 39.5385 2.32379C39.3005 2.36344 39.1419 2.54189 38.9635 2.72034C38.8841 2.79965 38.785 2.87896 38.6859 2.95827C38.5867 3.01775 38.4479 3.05741 38.329 3.05741C38.21 3.05741 38.091 2.9781 38.0117 2.85913C37.9324 2.75999 37.8928 2.6212 37.8135 2.50223C37.754 2.38327 37.635 2.2643 37.516 2.20482C37.3971 2.14534 37.2583 2.10568 37.1195 2.10568C36.9807 2.10568 36.8419 2.12551 36.7229 2.18499C36.604 2.24448 36.5048 2.34362 36.4454 2.44275C36.3066 2.64103 36.2074 2.85913 36.0686 3.01775C35.9298 3.17637 35.7316 3.27551 35.5531 3.31517C35.3747 3.35482 35.1962 3.33499 35.0574 3.29534C34.9186 3.25568 34.8195 3.17637 34.7402 3.11689C34.5419 2.9781 34.5022 2.87896 34.4824 2.87896Z" fill="#455A64" />
    <path d="M33.4905 2.89876C33.4905 2.89876 33.4707 2.93841 33.4707 2.9979C33.4707 3.05738 33.4707 3.17634 33.4905 3.29531C33.5302 3.41428 33.5897 3.55307 33.7086 3.67204C33.8078 3.791 33.9664 3.90996 34.1448 3.98928C34.5017 4.1479 34.8785 4.12807 35.1164 4.08841C35.2354 4.06859 35.3345 4.04876 35.4138 4.02893C35.4733 4.00911 35.5129 3.98928 35.5129 3.98928C35.5129 3.98928 35.3543 4.0091 35.1164 4.04876C34.8785 4.06859 34.5216 4.08842 34.1647 3.92979C33.9862 3.85048 33.8474 3.75135 33.7483 3.63238C33.6492 3.51342 33.5698 3.37462 33.5302 3.27548C33.4509 3.05738 33.4905 2.89876 33.4905 2.89876Z" fill="#455A64" />
    <path d="M48.005 22.1513C47.9654 24.7091 46.4188 27.0487 44.3964 28.5953C42.374 30.1419 39.9154 30.9944 37.4568 31.7082C34.9981 32.422 32.4999 32.997 30.1999 34.0875C27.0076 35.5944 24.0533 37.6763 22.249 40.71C20.4447 43.7436 19.8102 47.7289 20.0085 51.2582L47.1326 48.5419L48.6197 33.1358L48.005 22.1513Z" fill="#005DE8" />
    <path d="M23.695 38.5487C23.695 38.5487 23.6752 38.5884 23.6157 38.6677C23.5562 38.747 23.4967 38.8461 23.3976 38.9651C23.2984 39.1039 23.1795 39.2625 23.0605 39.4409C22.9415 39.6392 22.7829 39.8375 22.6441 40.0953C22.5053 40.353 22.3269 40.6108 22.1881 40.928C22.0295 41.2254 21.8708 41.5625 21.7321 41.8996C21.4346 42.6134 21.1571 43.4065 20.9389 44.259C20.7208 45.1116 20.6019 45.9444 20.5226 46.7177C20.4829 47.0944 20.4631 47.4513 20.4433 47.8082C20.4234 48.1453 20.4234 48.4625 20.4234 48.7599C20.4234 49.0573 20.4234 49.3151 20.4433 49.5332C20.4433 49.7711 20.4631 49.9694 20.4631 50.128C20.4631 50.2866 20.4829 50.4056 20.4829 50.5047C20.4829 50.584 20.4829 50.6435 20.4829 50.6435C20.4829 50.6435 20.4631 50.6039 20.4631 50.5047C20.4631 50.4056 20.4433 50.2866 20.4234 50.128C20.4036 49.9694 20.3838 49.7711 20.3838 49.5332C20.3838 49.2953 20.3441 49.0375 20.364 48.7599C20.364 48.4625 20.364 48.1453 20.3838 47.8082C20.3838 47.4711 20.4234 47.0944 20.4433 46.7177C20.5226 45.9444 20.6415 45.1116 20.8596 44.259C21.0777 43.4065 21.3553 42.5935 21.6527 41.8996C21.8114 41.5427 21.97 41.2254 22.1286 40.9082C22.2872 40.6108 22.4458 40.3332 22.6045 40.0754C22.7433 39.8177 22.9019 39.6194 23.0407 39.4211C23.1596 39.2228 23.2984 39.0642 23.3976 38.9453C23.4967 38.8263 23.576 38.7272 23.6355 38.6478C23.6553 38.5685 23.695 38.5487 23.695 38.5487Z" fill="#263238" />
    <g opacity="0.4">
        <g opacity="0.4">
            <g opacity="0.4">
                <g opacity="0.4">
                    <path opacity="0.4" d="M48.005 22.1513C47.9654 24.7091 46.4188 27.0487 44.3964 28.5953C42.374 30.1419 39.9154 30.9944 37.4568 31.7082C34.9981 32.422 32.4999 32.997 30.1999 34.0875C27.0076 35.5944 24.0533 37.6763 22.249 40.71C20.4447 43.7436 19.8102 47.7289 20.0085 51.2582L47.1326 48.5419L48.6197 33.1358L48.005 22.1513Z" fill="black" />
                </g>
            </g>
        </g>
    </g>
</svg>
